<svg width="29" height="29" viewBox="0 0 29 29" fill="none" xmlns="http://www.w3.org/2000/svg">
<g id="camera 1">
<path id="Vector" d="M24.7841 6.34375H20.8927L20.4396 4.98438C20.2212 4.32432 19.8001 3.75001 19.2363 3.34321C18.6724 2.93642 17.9947 2.71789 17.2994 2.71875H11.7006C11.0055 2.71822 10.328 2.93689 9.7644 3.34365C9.2008 3.75041 8.77981 4.32455 8.56134 4.98438L8.10731 6.34375H4.21587C3.3384 6.34471 2.49714 6.69371 1.87668 7.31418C1.25621 7.93465 0.90721 8.77591 0.90625 9.65338V22.9753C0.908168 23.8521 1.25759 24.6924 1.87795 25.3121C2.49832 25.9318 3.33903 26.2803 4.21587 26.2813H24.7878C25.6646 26.2793 26.5049 25.9299 27.1246 25.3095C27.7443 24.6892 28.0928 23.8485 28.0938 22.9716V9.64975C28.0918 8.77291 27.7424 7.93258 27.122 7.3129C26.5017 6.69321 25.661 6.34471 24.7841 6.34375ZM26.2812 22.9716C26.2808 23.3685 26.1229 23.7491 25.8422 24.0297C25.5616 24.3104 25.181 24.4683 24.7841 24.4688H4.21587C3.81896 24.4683 3.43844 24.3104 3.15778 24.0297C2.87712 23.7491 2.71923 23.3685 2.71875 22.9716V9.64975C2.72019 9.25347 2.8785 8.87387 3.15905 8.594C3.43961 8.31412 3.81959 8.15673 4.21587 8.15625H8.76072C8.95084 8.15611 9.13611 8.09617 9.29029 7.98493C9.44447 7.87368 9.55976 7.71676 9.61984 7.53638L10.2805 5.55441C10.3797 5.2563 10.5703 4.99701 10.8252 4.81335C11.0801 4.62968 11.3864 4.53098 11.7006 4.53125H17.2994C17.6137 4.53091 17.9202 4.62969 18.1751 4.81354C18.4301 4.99739 18.6206 5.25696 18.7195 5.55532L19.3802 7.53638C19.4402 7.71676 19.5555 7.87368 19.7097 7.98493C19.8639 8.09617 20.0492 8.15611 20.2393 8.15625H24.7841C25.181 8.15673 25.5616 8.31462 25.8422 8.59528C26.1229 8.87594 26.2808 9.25646 26.2812 9.65338V22.9716Z" fill="#262F6A"/>
<path id="Vector_2" d="M14.5 9.0625C13.1557 9.0625 11.8416 9.46113 10.7239 10.208C9.60612 10.9548 8.73495 12.0164 8.22051 13.2583C7.70607 14.5003 7.57147 15.8669 7.83373 17.1854C8.09599 18.5038 8.74333 19.7149 9.69389 20.6655C10.6444 21.6161 11.8555 22.2634 13.174 22.5257C14.4925 22.7879 15.8591 22.6533 17.1011 22.1389C18.343 21.6244 19.4045 20.7533 20.1514 19.6355C20.8982 18.5178 21.2969 17.2037 21.2969 15.8594C21.295 14.0573 20.5782 12.3296 19.304 11.0554C18.0298 9.78113 16.3021 9.06442 14.5 9.0625ZM14.5 20.8437C13.5142 20.8437 12.5505 20.5514 11.7308 20.0037C10.9112 19.456 10.2723 18.6776 9.89504 17.7668C9.51779 16.856 9.41908 15.8538 9.6114 14.887C9.80372 13.9201 10.2784 13.032 10.9755 12.3349C11.6726 11.6378 12.5607 11.1631 13.5276 10.9708C14.4945 10.7785 15.4967 10.8772 16.4074 11.2544C17.3182 11.6317 18.0967 12.2705 18.6444 13.0902C19.192 13.9099 19.4844 14.8736 19.4844 15.8594C19.4829 17.1809 18.9573 18.4478 18.0229 19.3823C17.0885 20.3167 15.8215 20.8423 14.5 20.8437Z" fill="#262F6A"/>
<path id="Vector_3" d="M23.5625 11.7812C24.063 11.7812 24.4688 11.3755 24.4688 10.875C24.4688 10.3745 24.063 9.96875 23.5625 9.96875C23.062 9.96875 22.6562 10.3745 22.6562 10.875C22.6562 11.3755 23.062 11.7812 23.5625 11.7812Z" fill="#262F6A"/>
</g>
</svg>
