<svg width="27" height="26" viewBox="0 0 27 26" fill="none" xmlns="http://www.w3.org/2000/svg">
<g id="five_x2C__gesture_x2C__hand_x2C__wave 1" clip-path="url(#clip0_159_2104)">
<g id="five_x2C__gesture_x2C__hand_x2C__wave">
<g id="Group 44104">
<g id="Group 44095">
<path id="Path 2761" d="M2.42939 13.7053L9.09744 17.0372C9.2948 17.1338 9.72466 17.3704 9.96625 16.985C10.1931 16.6251 9.81427 16.3352 9.63506 16.2075L1.87362 10.3878C1.59282 10.1624 1.41092 9.84026 1.36535 9.48757C1.31978 9.13487 1.41401 8.77849 1.62864 8.49176C1.84327 8.20503 2.16198 8.00978 2.51918 7.94618C2.87638 7.88257 3.24488 7.95546 3.54886 8.14985L11.4351 13.6875C11.578 13.793 11.9727 14.074 12.2596 13.7486C12.5466 13.4409 12.2324 13.09 12.1077 12.9589L4.78629 5.39436C4.53775 5.08789 4.4156 4.70131 4.44395 4.31096C4.4723 3.9206 4.64909 3.55484 4.93941 3.28589C5.22974 3.01695 5.61249 2.86437 6.01209 2.85829C6.4117 2.85221 6.7991 2.99307 7.09782 3.25305L14.291 10.5899C14.3988 10.6954 14.73 11.0342 15.0702 10.7832C15.4196 10.5199 15.1689 10.1334 15.1065 9.98462L10.6388 2.71772C10.4511 2.39371 10.4026 2.00995 10.5038 1.65087C10.6051 1.29178 10.8478 0.986792 11.1787 0.802988C11.5096 0.619183 11.9015 0.57162 12.2682 0.670764C12.6349 0.769907 12.9464 1.00764 13.1341 1.33165L18.1077 9.15942C18.7795 10.2602 19.7506 11.1566 20.9126 11.7483C21.6748 12.0993 22.2657 11.6517 22.3644 10.8709C22.5104 9.52339 22.7865 8.19246 23.1889 6.89594C23.3006 6.57676 23.4814 6.28498 23.7189 6.04058C23.9564 5.79618 24.2451 5.60494 24.5651 5.47995C24.8851 5.35495 25.2289 5.29917 25.573 5.31641C25.9171 5.33365 26.2534 5.42351 26.5587 5.57983L26.105 7.34353C25.6545 9.14187 25.5873 11.0118 25.9076 12.8367C26.236 14.5646 26.4038 16.3181 26.409 18.0756C26.3636 20.7078 24.5534 21.8584 22.9315 23.2889C15.9322 29.5085 10.8419 21.051 8.35907 19.846L1.13412 15.9254C0.993042 15.8376 0.871094 15.7233 0.775289 15.5892C0.679484 15.455 0.611712 15.3037 0.575872 15.1438C0.540032 14.9839 0.536832 14.8186 0.566455 14.6575C0.596078 14.4964 0.65794 14.3426 0.748482 14.205C0.9107 13.9287 1.1743 13.7232 1.48569 13.6304C1.79708 13.5376 2.13289 13.5643 2.42485 13.7053H2.42939Z" fill="#FFD869"/>
</g>
<g id="Group 44096">
<path id="Path 2762" d="M24.4583 5.54318C24.675 5.58525 24.8857 5.65314 25.0855 5.74532L24.6318 7.50901C24.1813 9.30735 24.1141 11.1773 24.4345 13.0022C24.7628 14.7301 24.9306 16.4836 24.9358 18.2411C24.8904 20.8733 23.0802 22.0239 21.4583 23.4544C20.4067 24.4563 19.1108 25.1782 17.6938 25.5513C19.6704 25.4999 21.5471 24.6897 22.9192 23.2956C24.5411 21.8651 26.3422 20.7156 26.3967 18.0823C26.3923 16.3247 26.2245 14.5712 25.8954 12.8434C25.5706 11.0188 25.6379 9.14794 26.0927 7.35019L26.5464 5.5865C26.2241 5.42606 25.869 5.33875 25.5075 5.33106C25.146 5.32337 24.7874 5.3966 24.4583 5.54318Z" fill="#F2C34E"/>
</g>
<g id="Group 44098">
<g id="Group 44097">
<path id="Path 2763" d="M24.4356 12.1359C24.7639 13.8638 24.9317 15.6173 24.9369 17.3748C24.8915 20.007 23.0813 21.1576 21.4594 22.5881C18.6635 25.0715 16.1717 25.2126 14.0303 24.414C16.4677 25.8578 19.4609 26.3798 22.9203 23.3034C24.5422 21.8729 26.3433 20.7234 26.3978 18.09C26.3934 16.3325 26.2256 14.5789 25.8964 12.8512C25.5823 11.0253 24.1135 10.3145 24.4356 12.1404V12.1359Z" fill="#F2C34E"/>
</g>
</g>
<g id="Group 44103">
<g id="Group 44099">
<path id="Path 2764" d="M5.62912 3.41187L13.6049 11.4595C13.7127 11.5651 14.0439 11.9038 14.3841 11.6528C14.7335 11.3896 14.4828 11.0031 14.4204 10.8542L14.0711 10.2834L7.09906 3.25972C6.84226 3.02498 6.51175 2.88246 6.16154 2.85543C5.81132 2.8284 5.46209 2.91845 5.1709 3.11089C5.3406 3.18051 5.49473 3.28201 5.62458 3.40965L5.62912 3.41187Z" fill="#F2C34E"/>
</g>
<g id="Group 44100">
<path id="Path 2765" d="M2.00864 8.36087L10.7557 14.4949C10.9168 14.606 11.3557 14.9158 11.6699 14.556C11.9478 14.2661 11.7232 13.9329 11.5712 13.7575L3.6317 8.18428C3.35976 8.01413 3.04078 7.93039 2.71839 7.94451C2.39599 7.95862 2.08592 8.0699 1.83057 8.26313C1.89295 8.29867 1.95646 8.32422 2.00977 8.35976L2.00864 8.36087Z" fill="#F2C34E"/>
</g>
<g id="Group 44101">
<path id="Path 2766" d="M11.661 1.48936L16.6345 9.31713C17.3064 10.418 18.2775 11.3143 19.4394 11.906C19.6438 12.0236 19.8867 12.0592 20.1173 12.0051C20.3478 11.9511 20.548 11.8116 20.6757 11.6161C19.6208 11.0227 18.7363 10.1776 18.1045 9.15942L13.1309 1.33165C13.0365 1.16949 12.9101 1.0273 12.759 0.913329C12.608 0.799363 12.4354 0.715888 12.2512 0.667745C12.067 0.619601 11.8748 0.607747 11.6859 0.63287C11.497 0.657992 11.315 0.719592 11.1506 0.814097C11.102 0.841221 11.0568 0.873636 11.0156 0.910722C11.278 1.04656 11.5002 1.24621 11.661 1.49047V1.48936Z" fill="#F2C34E"/>
</g>
<g id="Group 44102">
<path id="Path 2767" d="M8.59497 17.8568C8.82182 17.9679 9.32995 18.2433 9.60783 17.7957C9.6522 17.7282 9.67729 17.6502 9.68048 17.5699C9.68368 17.4896 9.66486 17.41 9.62598 17.3393L2.50991 13.7752C2.2471 13.646 1.95038 13.5981 1.6591 13.6377C1.36782 13.6774 1.09573 13.8028 0.878906 13.9974L8.59497 17.8568Z" fill="#F2C34E"/>
</g>
</g>
</g>
<g id="Group 44110">
<g id="Group 44105">
<path id="Path 2768" d="M17.8115 26C14.5847 26 11.959 23.5566 10.1306 21.8662C9.53923 21.2519 8.87431 20.7097 8.15027 20.2513L0.92305 16.3208C0.736278 16.2174 0.573106 16.0776 0.443584 15.9101C0.314062 15.7426 0.220933 15.5509 0.169931 15.3468C0.0497984 14.8855 0.120737 14.3965 0.367285 13.9862C0.581284 13.6094 0.936155 13.3285 1.35729 13.2026C1.77843 13.0766 2.23303 13.1155 2.62551 13.311L9.29356 16.6429C9.38705 16.692 9.48652 16.7293 9.58959 16.7539C9.51617 16.6822 9.43853 16.6147 9.35708 16.5518L1.59224 10.7421C1.22606 10.4491 0.985899 10.0318 0.919492 9.57337C0.853086 9.11489 0.9653 8.64874 1.23383 8.26757C1.37662 8.06997 1.55818 7.90219 1.76791 7.77405C1.97765 7.64591 2.21135 7.55996 2.45538 7.52123C2.68574 7.47729 2.9228 7.47954 3.15225 7.52784C3.3817 7.57614 3.59877 7.66947 3.79035 7.80222L11.6868 13.3365C11.8478 13.4598 11.9136 13.4687 11.9283 13.4687C11.8925 13.394 11.8442 13.3257 11.7854 13.2665L4.45386 5.702C4.11751 5.31214 3.94617 4.81107 3.97495 4.30149C4.00373 3.7919 4.23046 3.31239 4.60866 2.96122C4.98686 2.61005 5.4879 2.41382 6.0091 2.41274C6.53029 2.41165 7.03218 2.6058 7.4119 2.9554L14.6085 10.2923C14.6634 10.3581 14.7344 10.4093 14.8149 10.4411C14.7889 10.3692 14.759 10.2988 14.7253 10.2301L10.244 2.9554C10.1191 2.74871 10.0371 2.51987 10.0029 2.28205C9.96861 2.04422 9.98272 1.80211 10.0444 1.56965C10.1061 1.33719 10.2141 1.11896 10.3622 0.927533C10.5103 0.736106 10.6957 0.575257 10.9075 0.454246C11.1224 0.329356 11.3605 0.247494 11.6079 0.213408C11.8554 0.179323 12.1073 0.193692 12.349 0.255684C12.5907 0.317675 12.8175 0.426054 13.0161 0.574532C13.2147 0.72301 13.3813 0.908632 13.506 1.12063L18.4716 8.94839C19.1036 9.97531 20.0078 10.8154 21.0883 11.3796C21.1644 11.4208 21.249 11.4446 21.3358 11.4492C21.4226 11.4538 21.5094 11.4391 21.5896 11.4062C21.6835 11.3414 21.7607 11.256 21.8152 11.157C21.8697 11.0579 21.9001 10.9478 21.9038 10.8354C22.0549 9.46095 22.3371 8.10339 22.7465 6.78043C22.873 6.40612 23.0812 6.06325 23.3566 5.77558C23.632 5.48791 23.9679 5.26233 24.3412 5.11448C24.7273 4.96274 25.1418 4.89289 25.5575 4.90955C25.9731 4.9262 26.3804 5.02898 26.7525 5.2111C26.8437 5.2559 26.9165 5.32991 26.9588 5.42083C27.0011 5.51175 27.0104 5.61411 26.9851 5.71089L26.5314 7.47458C26.092 9.21208 26.0279 11.0203 26.3431 12.7834C26.6819 14.5411 26.8528 16.3258 26.8535 18.1145C26.8081 20.5979 25.3121 21.8706 23.8603 23.1123C23.6539 23.2878 23.4395 23.4722 23.2331 23.6566C21.7939 25.0814 19.8564 25.9189 17.8115 26ZM1.86445 14.0129C1.71753 14.0143 1.57364 14.054 1.44763 14.128C1.32162 14.202 1.21806 14.3076 1.14762 14.4338V14.4427C1.02355 14.6488 0.98498 14.8937 1.03987 15.1269C1.0859 15.3058 1.20149 15.46 1.36199 15.5567L8.56766 19.4794C9.37001 19.967 10.1024 20.5571 10.7454 21.2343C13.6047 23.8842 17.5121 27.5182 22.6206 22.9802C22.8361 22.7869 23.0505 22.6114 23.266 22.4249C24.6815 21.2143 25.9098 20.178 25.9541 18.0812C25.9496 16.3501 25.7844 14.623 25.4607 12.9211C25.1216 11.0358 25.1888 9.10193 25.658 7.24357L26.0176 5.85527C25.579 5.72166 25.1065 5.74329 24.6826 5.91636C24.429 6.01651 24.2006 6.16923 24.0131 6.36401C23.8255 6.55879 23.6832 6.79103 23.596 7.04476C23.2047 8.31323 22.9348 9.61457 22.7896 10.932C22.7692 11.1808 22.6897 11.4214 22.5574 11.6347C22.425 11.848 22.2435 12.028 22.0274 12.1604C21.824 12.2644 21.5979 12.3187 21.3684 12.3187C21.1389 12.3187 20.9129 12.2644 20.7094 12.1604C19.4684 11.5296 18.4318 10.5723 17.7162 9.39598L12.7438 1.56821C12.6787 1.45567 12.5915 1.35682 12.4873 1.27735C12.383 1.19787 12.2638 1.13933 12.1364 1.10507C12.009 1.07081 11.8759 1.06152 11.7449 1.07772C11.6138 1.09392 11.4873 1.1353 11.3726 1.19948C11.2602 1.26208 11.1619 1.34647 11.0839 1.44749C11.0059 1.5485 10.9498 1.66403 10.9189 1.78701C10.858 2.02079 10.89 2.2685 11.0085 2.48005L15.4898 9.75472C15.8845 10.5177 15.6248 10.9131 15.3469 11.1241C15.1053 11.2996 14.6119 11.5106 13.9858 10.902L6.7756 3.5607C6.57016 3.38863 6.30871 3.29407 6.03836 3.29407C5.76802 3.29407 5.50657 3.38863 5.30112 3.5607C5.06757 3.74154 4.91665 4.00559 4.88136 4.29509C4.84608 4.5846 4.92931 4.87601 5.11284 5.10559L12.4263 12.6579C12.533 12.7375 12.6219 12.8375 12.6878 12.952C12.7536 13.0664 12.7949 13.1928 12.8091 13.3233C12.8234 13.4539 12.8102 13.586 12.7705 13.7114C12.7308 13.8369 12.6654 13.9531 12.5782 14.0529C12.4524 14.1928 11.9601 14.6404 11.1537 14.044L3.27088 8.50969C3.17542 8.44655 3.06817 8.40247 2.95529 8.37998C2.8424 8.35749 2.7261 8.35703 2.61303 8.37864C2.48624 8.39896 2.36478 8.44356 2.2556 8.50988C2.14642 8.57619 2.05166 8.66294 1.97674 8.76514C1.83945 8.96196 1.78092 9.20137 1.8123 9.43773C1.84367 9.6741 1.96276 9.89089 2.14687 10.0468L9.8947 15.851C10.6115 16.4063 10.531 16.895 10.3336 17.2026C10.1272 17.5358 9.70641 17.8435 8.89091 17.4248L2.21379 14.0829C2.10321 14.0371 1.98448 14.0134 1.86445 14.0129Z" fill="#455A64"/>
</g>
<g id="Group 44106">
<path id="Path 2769" d="M6.27336 24.3774C4.98115 24.3748 3.71495 24.0216 2.61535 23.357C1.51575 22.6923 0.625778 21.7423 0.0442438 20.6123C0.0055287 20.5097 0.0068151 20.3968 0.0478567 20.2951C0.0888984 20.1933 0.166811 20.11 0.266677 20.0611C0.366542 20.0121 0.481343 20.0009 0.589097 20.0297C0.696851 20.0584 0.789987 20.1251 0.850671 20.2169C1.3717 21.2265 2.17507 22.0702 3.1671 22.6497C4.15914 23.2292 5.29897 23.5206 6.4537 23.49C6.57151 23.4899 6.68473 23.5347 6.7694 23.6149C6.85407 23.6952 6.90355 23.8045 6.90738 23.9198C6.90936 23.9774 6.89947 24.0349 6.8783 24.0887C6.85713 24.1425 6.82511 24.1916 6.78415 24.2331C6.74319 24.2745 6.69413 24.3075 6.63989 24.33C6.58565 24.3525 6.52734 24.3641 6.46844 24.364C6.40296 24.3716 6.337 24.3746 6.27109 24.3729L6.27336 24.3774Z" fill="#455A64"/>
</g>
<g id="Group 44107">
<path id="Path 2770" d="M6.23023 22.2016H6.18486C5.33738 22.1197 4.52294 21.8373 3.81165 21.3788C3.10035 20.9203 2.51352 20.2993 2.10168 19.5694C2.06609 19.5181 2.04189 19.46 2.03064 19.3989C2.01939 19.3378 2.02134 19.2751 2.03636 19.2147C2.05138 19.1544 2.07914 19.0979 2.11785 19.0487C2.15657 18.9996 2.20537 18.9589 2.26111 18.9293C2.31686 18.8998 2.37831 18.882 2.44151 18.8771C2.50471 18.8723 2.56825 18.8804 2.62803 18.9011C2.68781 18.9217 2.74251 18.9544 2.7886 18.997C2.8347 19.0396 2.87116 19.0912 2.89563 19.1485C3.23758 19.7541 3.72451 20.2693 4.31461 20.65C4.90471 21.0307 5.58036 21.2655 6.28353 21.3342C6.39703 21.3455 6.50176 21.3991 6.57606 21.4838C6.65035 21.5686 6.68854 21.6781 6.68271 21.7896C6.67689 21.9012 6.62749 22.0063 6.54475 22.0832C6.462 22.1601 6.35224 22.2029 6.23816 22.2027L6.23023 22.2016Z" fill="#455A64"/>
</g>
<g id="Group 44108">
<path id="Path 2771" d="M21.295 6.22845C21.1829 6.22912 21.0745 6.18908 20.9907 6.11606C20.9069 6.04305 20.8537 5.94223 20.8414 5.83307C20.7125 4.70892 20.2604 3.6437 19.5375 2.7613C18.8147 1.8789 17.8509 1.21559 16.7582 0.848529C16.6464 0.811267 16.5544 0.732061 16.5023 0.628335C16.4501 0.524609 16.4422 0.40486 16.4803 0.295432C16.5184 0.186003 16.5992 0.0958583 16.7052 0.0448285C16.8111 -0.00620122 16.9334 -0.0139361 17.0451 0.0233256C18.2975 0.446619 19.4018 1.20881 20.2298 2.22154C21.0579 3.23428 21.5759 4.45608 21.7238 5.74532C21.735 5.8603 21.7001 5.97504 21.6264 6.06523C21.5527 6.15542 21.4461 6.21396 21.3291 6.22845H21.295Z" fill="#455A64"/>
</g>
<g id="Group 44109">
<path id="Path 2772" d="M19.1172 6.66715C19.0098 6.66697 18.906 6.62859 18.8253 6.55913C18.7446 6.48967 18.6923 6.39387 18.6783 6.28953C18.5726 5.6051 18.2987 4.95604 17.8803 4.39811C17.4618 3.84019 16.9113 3.39008 16.276 3.08646C16.1861 3.02619 16.1214 2.93625 16.0936 2.83308C16.0658 2.7299 16.0769 2.62039 16.1248 2.52456C16.1727 2.42872 16.2542 2.35297 16.3545 2.31115C16.4547 2.26933 16.567 2.26424 16.6707 2.29679C17.4357 2.66393 18.0985 3.20693 18.6025 3.8794C19.1066 4.55187 19.4369 5.33383 19.5653 6.15848C19.5816 6.27344 19.5514 6.39011 19.481 6.48351C19.4106 6.57692 19.3057 6.63964 19.1887 6.65826C19.1615 6.65826 19.1445 6.66715 19.1172 6.66715Z" fill="#455A64"/>
</g>
</g>
</g>
</g>
<defs>
<clipPath id="clip0_159_2104">
<rect width="27" height="26" fill="white"/>
</clipPath>
</defs>
</svg>
