<svg width="66" height="44" viewBox="0 0 66 44" fill="none" xmlns="http://www.w3.org/2000/svg">
<g id="Group 45109">
<path id="Vector" d="M0.0141602 10C0.0141602 4.47715 4.49131 0 10.0142 0H55.5968C61.1197 0 65.5968 4.47715 65.5968 10V34C65.5968 39.5228 61.1197 44 55.5968 44H10.0142C4.49131 44 0.0141602 39.5228 0.0141602 34V10Z" fill="#D6D4D1"/>
<g id="Group">
<path id="Vector_2" d="M0.5625 10.5382C0.5625 5.01539 5.03965 0.53825 10.5625 0.53825H55.0674C60.5903 0.53825 65.0674 5.0154 65.0674 10.5382V33.4641C65.0674 38.987 60.5903 43.4641 55.0674 43.4641H10.5625C5.03966 43.4641 0.5625 38.9869 0.5625 33.4641V10.5382Z" fill="#026C34"/>
<g id="Group_2">
<path id="Vector_3" d="M16.1605 10.7141C16.1605 10.8763 16.306 10.9343 16.347 10.7774C16.3757 10.6677 16.394 10.5536 16.394 10.4408C16.394 9.91735 16.0737 10.0043 15.9551 10.0929C15.8347 10.1836 15.5996 10.4165 15.7217 10.5591C15.8402 10.7014 15.9736 10.4518 16.055 10.4518C16.1383 10.4518 16.1605 10.4961 16.1605 10.7141V10.7141Z" fill="white"/>
<path id="Vector_4" d="M14.7832 12.8808C14.7831 12.0332 15.051 12.1424 15.1524 12.9839C15.233 13.6534 15.3871 14.3176 15.681 14.3176C15.681 14.3176 15.681 14.3176 15.681 14.3176C15.6814 14.3176 15.9441 14.3172 16.0163 13.6168C16.0923 12.9162 16.3978 11.1638 17.1367 11.1638C17.8731 11.1638 16.7684 12.579 17.3499 13.8203C17.351 13.8227 17.3505 13.8216 17.3516 13.824V13.824C17.5341 14.2202 17.945 13.9186 17.9148 13.4835C17.8738 12.8952 17.8109 12.1392 17.7385 11.785V11.785C17.6885 11.5355 17.4557 10.7945 17.5526 10.5593C17.5604 10.5402 17.5699 10.5212 17.581 10.5023C17.768 10.1917 17.8589 10.0715 18.031 10.3413C18.1256 10.4937 18.3586 10.8316 18.4464 11.151C18.5602 11.5648 18.2776 12.0468 18.3179 12.4741L18.3681 13.0048C18.4198 13.5517 19.0342 13.6961 18.9217 13.1584V13.1584C18.8444 12.7862 18.7204 12.3174 18.6834 11.8826C18.6381 11.3493 19.3252 11.2091 19.3252 11.7442V11.7442C19.3252 12.2268 19.2884 14.144 20.2587 14.144C21.0392 14.144 20.4048 12.7424 20.1315 11.9991C20.0385 11.7461 20.0231 11.4539 20.2086 11.2583V11.2583C20.44 11.0144 20.4681 10.9218 20.6459 11.1065C20.8217 11.2913 21.1421 11.6129 21.1421 11.9292V11.9292C21.1421 12.0861 20.9444 12.3608 20.9838 12.5127C21.0785 12.8773 21.1978 13.4197 21.1978 13.8369C21.1978 14.53 20.796 15.0901 20.0516 15.0901C19.8412 15.0901 19.6791 15.0169 19.5548 14.9121C19.3334 14.7253 18.8676 14.6561 18.6725 14.8701V14.8701C18.5983 14.9513 18.5515 15.0518 18.5573 15.1617L18.6988 17.866C18.7044 17.9723 18.7065 18.0792 18.6878 18.184C18.6736 18.263 18.6494 18.3625 18.6081 18.4605C18.5279 18.6507 18.3736 18.6344 18.3589 18.4285V18.4285C18.3529 18.3443 18.327 18.0753 18.2926 17.7286C18.1634 16.4281 16.7807 15.0433 16.7421 13.737V13.737C16.741 13.702 16.7411 13.5992 16.743 13.5643C16.7486 13.4587 16.7632 13.2058 16.7885 12.9197C16.8256 12.5443 16.7847 12.1394 16.6645 12.4392C16.5441 12.7387 16.5033 13.0045 16.3147 13.9585C16.122 14.9087 15.8812 15.175 15.596 15.175C15.3108 15.175 14.7832 14.3023 14.7832 12.8808V12.8808Z" fill="white"/>
<path id="Vector_5" d="M19.4806 10.6998C19.6252 10.6619 19.9017 10.7313 20.0512 10.7313V10.7313C20.1037 10.7313 20.144 10.7045 20.1748 10.6652C20.2557 10.5624 20.3472 10.5395 20.3472 10.6703V10.6703C20.3472 10.9123 20.1657 11.0085 20.0677 11.0085V11.0085C19.9811 11.0085 19.5515 10.9799 19.4651 10.9867C19.4528 10.9877 19.44 10.9882 19.4267 10.9882C19.1621 10.9882 19.0474 10.6703 19.0474 10.4799C19.0474 10.2895 19.1231 10.1269 19.1843 10.1269C19.2454 10.1269 19.2733 10.4042 19.2733 10.4596C19.2733 10.5188 19.3212 10.7054 19.436 10.7054C19.4509 10.7054 19.4657 10.7037 19.4806 10.6998Z" fill="white"/>
<path id="Vector_6" d="M17.3402 16.5376C16.8034 16.6981 16.5312 16.3313 17.0551 16.1328C17.1535 16.0956 17.2548 16.0622 17.3588 16.0335C17.3832 16.0268 17.4073 16.0184 17.4319 16.0124C17.5008 15.9956 17.6438 15.9845 17.6438 16.1824C17.6438 16.4468 17.6771 16.4377 17.3402 16.5376V16.5376Z" fill="white"/>
<path id="Vector_7" d="M25.7143 16.2897C25.7143 16.1714 25.703 15.491 25.5883 15.4837C25.4735 15.4799 25.1754 15.7146 25.2308 15.7738C25.2863 15.8367 25.4808 16.7056 25.0252 16.7056V16.7056C24.696 16.7056 24.0288 16.5438 23.75 16.719C23.674 16.7668 23.5964 16.7923 23.5178 16.7923C23.1788 16.7923 23.0881 16.3523 23.0881 16.2472C23.0881 16.14 23.1679 15.6647 22.9847 15.6647V15.6647C22.7177 15.6647 22.3909 15.6363 22.3724 15.37L22.213 13.0798C22.1974 12.8547 22.5773 12.4355 22.5773 12.2099V12.2099C22.5773 11.9492 22.0643 10.5812 21.9436 10.3741C21.8251 10.1709 21.5881 10.437 21.3881 10.7365V10.7365C21.1626 11.0681 21.4116 11.5344 21.44 11.9344C21.4688 12.3397 21.5234 12.8914 21.614 13.6811C21.733 14.6954 21.8374 15.8041 21.8769 16.236C21.8874 16.3503 21.8309 16.46 21.7322 16.5183V16.5183C21.5651 16.6171 21.3444 16.5331 21.2522 16.3624C21.0839 16.0508 20.7646 15.6444 20.2438 15.6444C19.3994 15.6444 19.4067 16.3561 19.4067 17.4079V17.4079C19.4067 18.332 20.7271 18.7476 19.9793 19.2906C19.6148 19.5553 19.1752 19.7369 18.6918 19.7369V19.7369C18.1763 19.7369 17.3553 19.7337 17.672 20.1405C17.9038 20.4383 18.2407 20.6174 18.6661 20.6174C19.9456 20.6174 21.1124 19.4306 21.3902 18.8744C21.6025 18.4505 21.5866 17.8499 21.5673 17.5901C21.5615 17.5122 21.5991 17.4366 21.6667 17.3975V17.3975C21.7899 17.3264 21.9435 17.408 21.949 17.5502C21.9657 17.9796 21.9739 18.7726 21.8478 19.3511C21.6681 20.1849 19.9589 21.3458 18.5365 21.3458C17.1143 21.3458 16.9495 20.0185 16.9495 19.6174C16.9495 19.2163 17.044 18.7523 17.044 18.4528V18.4528C17.044 18.2439 16.8392 18.2157 16.7718 18.4134C16.5783 18.9809 16.5768 19.7392 16.5772 19.8161C16.5772 19.8208 16.5772 19.825 16.5772 19.8298C16.5796 22.1757 17.7225 22.259 18.4255 22.259C19.129 22.259 20.2514 22.1183 21.6384 21.1554C22.9574 20.2418 22.5352 17.3162 22.4919 17.0392C22.4896 17.0245 22.4944 17.0117 22.5044 17.0008V17.0008C22.5346 16.9679 22.6011 16.99 22.6162 17.0321C22.6656 17.1694 22.8154 17.3692 23.2699 17.3692C23.4139 17.3692 23.5428 17.3466 23.6566 17.3107C24.021 17.1959 24.5766 17.2714 24.9586 17.2714V17.2714C24.9586 17.2714 24.9586 17.2714 24.9586 17.2714C25.7682 17.2714 25.7143 16.4117 25.7143 16.2897ZM20.2514 17.0716C19.918 17.0716 19.8625 16.456 20.1274 16.456C20.2108 16.456 20.3014 16.5032 20.3866 16.5681C20.6186 16.7449 20.5431 17.0716 20.2514 17.0716V17.0716Z" fill="white"/>
<path id="Vector_8" d="M15.3899 19.6099C15.5163 19.262 15.7385 19.3038 15.6643 19.6664C15.6491 19.7412 15.6279 19.8185 15.5993 19.8965C15.545 20.0457 15.4973 20.3142 15.4845 20.5776C15.455 21.1799 16.2727 22.0424 15.6697 22.0424V22.0424C14.8327 22.0424 15.1623 20.2271 15.3899 19.6099V19.6099Z" fill="white"/>
<path id="Vector_9" d="M24.1942 18.9491C24.1967 18.8113 24.026 18.7082 23.8968 18.6602C23.8296 18.6353 23.7754 18.5645 23.7754 18.4009C23.7754 18.2382 23.8281 18.1435 23.8938 18.0887C24.0322 17.9733 24.2621 18.0193 24.3593 18.171C24.4198 18.2654 24.4697 18.4173 24.4697 18.6616C24.4697 18.776 24.4568 18.8795 24.4356 18.9723C24.3874 19.1839 24.1904 19.1662 24.1942 18.9491V18.9491Z" fill="white"/>
<path id="Vector_10" d="M26.0239 10.7832C26.0239 10.6408 25.9738 10.1914 25.6239 10.1914C25.2722 10.1914 24.9221 10.5261 24.9221 11.0325V11.0325C24.9221 11.4026 24.9874 11.9276 24.7288 12.1923C23.8205 13.1217 22.3606 13.9748 23.6515 13.4172C24.6147 12.9999 25.117 12.5169 25.3582 12.2135C25.4924 12.0447 25.9047 11.9034 25.8582 11.6929V11.6929C25.8195 11.5173 25.82 11.4176 25.8834 11.2493C25.9502 11.0719 26.0239 10.859 26.0239 10.7832ZM25.6122 10.8582C25.6011 11.0796 25.2958 11.0577 25.3813 10.8532V10.8532C25.4221 10.7514 25.6126 10.6479 25.6126 10.84C25.6126 10.8461 25.6125 10.8522 25.6122 10.8582Z" fill="white"/>
<path id="Vector_11" d="M25.0349 14.2399C25.2006 14.2399 25.4543 14.4076 25.3234 14.5092C25.2273 14.5838 25.1014 14.6337 24.9367 14.6337C24.3565 14.6337 24.3845 13.8222 24.8652 13.291C24.9962 13.1462 25.1604 13.176 25.0663 13.3472V13.3472C24.9221 13.6114 24.6293 14.2399 25.0349 14.2399V14.2399Z" fill="white"/>
<path id="Vector_12" d="M29.9296 10.9873C29.8447 10.796 29.6285 10.6047 29.7592 10.4412V10.4412C29.8924 10.2708 30.0184 10.2895 30.1478 10.6019C30.2795 10.9125 30.3905 11.5891 30.094 12.3232C30.0942 12.3228 30.1695 11.5273 29.9296 10.9873Z" fill="white"/>
<path id="Vector_13" d="M30.5624 16.1548C30.4892 15.9548 30.6907 16.0533 30.9037 16.0533V16.0533C30.9109 16.0533 30.9178 16.0522 30.9245 16.0501C31.1036 15.9945 31.3423 15.9461 31.5298 15.9461V15.9461C31.5646 15.9461 31.5912 15.9011 31.6116 15.833C31.6825 15.5957 31.8815 15.5431 31.8815 15.7908V15.7908C31.8815 16.2067 31.6093 16.2732 31.5203 16.2732V16.2732C31.3438 16.2732 31.1422 16.3051 30.9922 16.398C30.9527 16.4224 30.9062 16.4379 30.852 16.4379C30.7306 16.4378 30.6252 16.3264 30.5624 16.1548Z" fill="white"/>
<path id="Vector_14" d="M37.5545 10.5249C37.5866 10.441 37.6248 10.3573 37.6847 10.2905C37.7465 10.2215 37.8409 10.1687 37.9439 10.2989C38.1257 10.5225 38.3256 10.9847 38.3256 11.4876V11.4876C38.3256 11.7925 38.0626 11.6974 37.9966 11.3998C37.9645 11.2551 37.9091 11.1221 37.8174 11.0311C37.5465 10.7597 37.4912 10.6906 37.5545 10.5249Z" fill="white"/>
<path id="Vector_15" d="M37.7174 13.431C37.6915 13.2805 37.8418 13.3597 37.9945 13.3597V13.3597C38.0046 13.3597 38.0145 13.356 38.0243 13.3492C38.1289 13.2765 38.3333 13.3024 38.4608 13.3024V13.3024C38.4903 13.3024 38.5198 13.2763 38.5481 13.235C38.6631 13.0673 38.8406 13.0544 38.8406 13.2579V13.2579C38.8406 13.6295 38.6331 13.6663 38.5781 13.6663V13.6663C38.4131 13.6663 38.101 13.6622 37.9361 13.6697C37.9305 13.6699 37.9248 13.67 37.919 13.67C37.8045 13.6703 37.7408 13.5666 37.7174 13.431Z" fill="white"/>
<path id="Vector_16" d="M48.2746 11.396C48.3067 11.2797 48.361 11.163 48.4539 11.086C48.5142 11.0361 48.5948 11.016 48.6818 11.123C48.8596 11.3485 49.0595 11.8128 49.0595 12.3154V12.3154C49.0595 12.6184 48.7968 12.5239 48.7325 12.2278C48.7008 12.0819 48.6457 11.9473 48.5538 11.8552C48.3062 11.6108 48.2372 11.5314 48.2746 11.396Z" fill="white"/>
<path id="Vector_17" d="M33.9551 21.3914C33.7947 21.455 33.9262 21.2706 34.0643 21.167C34.2401 21.0352 34.4918 20.8709 34.6545 20.8709C34.925 20.8709 34.625 21.3514 34.625 21.4921C34.625 21.6326 34.5607 21.9319 34.9949 21.7214C35.4324 21.5124 35.828 21.3517 35.9026 21.3795C35.9765 21.4127 35.2773 22.1984 34.6394 22.1984C34.0022 22.1984 34.3133 21.5181 34.3317 21.4276C34.3539 21.3371 34.3761 21.2023 34.0222 21.363C33.9972 21.3741 33.9749 21.3835 33.9551 21.3914Z" fill="white"/>
<path id="Vector_18" d="M45.8872 20.9694C45.9226 20.9626 45.9584 20.9594 45.9944 20.9593C46.1053 20.959 46.3485 20.9785 46.3485 21.1554C46.3485 21.3863 45.9561 21.6618 46.2934 21.6618C46.6306 21.6618 46.6195 21.9206 46.3392 22.0518C46.0559 22.1831 45.4634 22.4751 45.4634 22.124C45.4634 21.7709 45.8855 21.893 45.8855 21.5859C45.8855 21.2791 45.5746 21.4455 45.5746 21.22C45.574 21.0502 45.7855 20.989 45.8872 20.9694Z" fill="white"/>
<path id="Vector_19" d="M44.4799 17.2363C44.2852 17.0881 44.6122 16.6938 44.809 16.8392C44.8312 16.8556 44.8542 16.8767 44.8779 16.9036C45.1039 17.1531 45.1969 17.4453 45.1969 17.7522C45.1969 18.0534 44.9596 18.2678 44.8968 18.2586C44.8324 18.2457 44.9039 17.9904 44.9039 17.7852C44.9039 17.5783 44.5892 17.3193 44.4799 17.2363V17.2363Z" fill="white"/>
<path id="Vector_20" d="M44.778 15.6641C44.877 15.582 45.0186 15.4453 45.0993 15.5455C45.1319 15.586 45.156 15.6643 45.156 15.8075C45.156 16.2531 44.7081 16.1308 43.8301 16.7928C42.9488 17.4548 43.1963 17.0294 43.2373 16.9646C43.272 16.9147 44.3723 16.0004 44.778 15.6641Z" fill="white"/>
<path id="Vector_21" d="M43.1008 14.2917C43.1888 14.2915 43.3874 14.2928 43.4349 14.3669C43.5271 14.5103 43.6453 14.7056 43.7331 14.8908C43.9038 15.2384 44.0813 15.3491 44.0886 14.9148C44.0921 14.6332 44.0911 14.2725 44.0899 14.052C44.0892 13.9183 44.0619 13.7741 44.1262 13.6569C44.1484 13.6164 44.1835 13.5857 44.239 13.5857C44.4002 13.5857 44.4073 13.798 44.5147 13.6816C44.6182 13.5652 44.5166 13.4009 44.4893 13.2991C44.4553 13.1973 44.3448 12.9367 44.0856 13.1754C43.8259 13.412 43.8481 13.6854 43.8818 14.0108C43.9156 14.3325 43.9557 14.8816 43.7472 14.4192C43.5343 13.9571 43.4158 13.5133 43.1325 13.5133C42.8511 13.5133 42.9195 14.2917 43.1008 14.2917V14.2917Z" fill="white"/>
<path id="Vector_22" d="M35.5036 18.2513C35.1727 18.3099 34.2625 18.3267 33.3855 18.328C32.9004 18.3286 32.773 17.7088 33.2267 17.5372C33.2812 17.5166 33.3242 17.5007 33.3548 17.4895C33.3907 17.4765 33.4301 17.4793 33.4641 17.4967L33.5317 17.5314C33.591 17.5619 33.6618 17.5204 33.6642 17.4537V17.4537C33.6655 17.4173 33.6882 17.3852 33.7218 17.3711C33.9729 17.265 34.992 16.7976 34.992 16.1996C34.992 15.5158 34.0588 14.9591 33.4546 14.9591C32.8528 14.9591 32.4694 15.7243 32.4694 16.1459V16.1459C32.4694 16.4562 32.328 16.8871 32.0357 16.9912C31.3914 17.2207 30.4608 17.5644 30.2862 17.6949C30.0139 17.8962 29.8489 18.401 29.8489 18.6929C29.8489 18.9358 30.3645 18.936 30.5386 18.9291C30.5766 18.9276 30.6151 18.9259 30.6531 18.9262C31.0425 18.9291 31.3477 18.9608 31.5858 19.0057C32.0298 19.0894 31.5582 19.7734 31.359 20.1789V20.1789C31.1069 20.6921 30.474 20.8001 30.1261 20.3463C29.9292 20.0895 29.8378 19.8032 29.7583 19.5048C29.5954 18.8836 29.4433 17.6709 29.2618 17.011C29.0821 16.3491 28.4563 14.7779 28.3283 14.7779C28.2006 14.7779 27.8321 15.4785 27.9839 15.9128V15.9128C28.6684 17.9269 28.6848 20.6258 26.7222 21.4462C26.5124 21.5339 26.3153 21.5786 26.1396 21.5786V21.5786C25.4233 21.5786 25.8724 20.691 26.427 20.2377C27.32 19.5079 27.7284 18.6608 27.7284 18.0866C27.7284 17.6378 27.6019 17.1678 27.4998 16.8616C27.4633 16.7523 27.621 16.5175 27.621 16.4023V16.4023C27.621 16.1381 26.884 15.3209 26.7654 15.3209C26.6432 15.3209 26.3044 15.8975 26.3044 16.1546V16.1546C26.3044 16.4593 26.6941 16.617 26.8434 16.8826C27.0167 17.1909 27.2157 17.6307 27.2157 18.0253C27.2157 18.3383 26.8957 18.7233 26.5424 19.053C26.2093 19.3638 26.0218 18.5772 25.573 18.6557V18.6557V18.6557C24.4484 18.8514 24.3848 20.6241 23.4117 21.2208C23.1984 21.3516 23.0412 21.4466 23.0136 21.4599C22.9175 21.5025 21.197 22.2474 21.8877 22.2474C22.1354 22.2474 22.5896 22.1142 23.0711 21.9429C23.9452 21.6321 25.1769 22.4778 26.1041 22.5081V22.5081C26.1161 22.5085 26.1139 22.5081 26.1259 22.5079V22.5079C27.8482 22.4855 30.614 22.2345 32.3316 22.3638C32.4618 22.3736 32.5662 22.3749 32.6359 22.3749C33.0948 22.3749 33.1621 21.9682 33.1621 21.6835C33.1621 21.3988 31.829 21.2416 31.829 20.6112C31.829 19.979 34.47 19.4153 35.1254 19.2932C35.7807 19.173 35.8032 18.9772 35.879 18.7665C35.9554 18.5579 36.2109 18.1236 35.5036 18.2513ZM33.3203 15.9218C33.4074 15.9218 34.1034 16.2729 34.1034 16.3524C34.1034 16.3709 34.0603 16.3935 33.9943 16.4174C33.6122 16.5552 32.9141 15.9218 33.3203 15.9218V15.9218Z" fill="white"/>
<path id="Vector_23" d="M26.3166 12.45C26.3332 12.0061 26.6105 12.0744 26.6105 12.5186V12.5186C26.6105 13.0545 26.9773 13.781 27.2791 13.781C27.5791 13.781 28.3884 10.8122 29.0254 10.8122C29.6623 10.8122 29.155 11.5719 29.155 13.0766C29.155 14.5776 30.0995 14.0509 30.2029 14.0082C30.3104 13.9601 31.0125 13.5609 31.0125 12.6256C31.0125 11.6881 30.6846 10.7714 30.6846 10.6163C30.6846 10.4591 30.9697 9.80283 31.1178 9.95082C31.266 10.0986 31.529 11.0026 31.529 11.633C31.529 12.2655 31.7698 13.8772 32.5177 13.8772C33.2656 13.8772 32.7437 12.1729 32.6584 11.8955C32.5734 11.6127 32.2066 10.9067 32.3437 10.7311C32.4863 10.5555 32.6622 10.2892 32.7217 10.1747C32.7847 10.0602 32.988 10.206 33.1587 10.391C33.3294 10.5758 33.6698 11.0177 33.6698 11.4225V11.4225C33.6698 11.5936 33.3116 11.8279 33.3493 11.9948C33.4252 12.3312 33.4956 12.749 33.4956 13.1417C33.4956 13.9938 33.0437 14.6021 32.5026 14.6021V14.6021C31.8271 14.6021 30.9211 14.5476 30.301 14.8156C30.1189 14.8943 29.9121 14.944 29.6803 14.944C28.8343 14.944 28.6902 13.9456 28.6689 13.482C28.6618 13.3274 28.6755 13.1738 28.686 13.0194C28.7042 12.7508 28.7185 12.3476 28.6377 12.3763C28.5173 12.4149 28.1618 13.5074 28.0357 13.8607C27.9099 14.2175 27.784 14.5889 27.4285 14.5889C27.0727 14.5889 26.3135 13.7165 26.3135 12.6147C26.3135 12.5582 26.3146 12.5033 26.3166 12.45Z" fill="white"/>
<path id="Vector_24" d="M35.6383 11.5802C35.6373 11.7528 35.3853 11.9529 35.4828 12.0954L35.5461 12.1879C35.675 12.3762 35.9701 12.2694 35.9485 12.0422L35.9055 11.5896C35.897 11.5004 35.8506 11.4191 35.8034 11.3429C35.7654 11.2816 35.7296 11.1958 35.7296 11.09C35.7296 10.8664 35.8961 10.347 36.1258 10.347C36.3559 10.347 37.0153 11.9681 37.0153 12.3305V12.3305C37.0153 12.5225 36.694 12.725 36.7018 12.9168L36.7408 13.8823C36.7459 14.0072 36.7852 14.1269 36.8548 14.2307C37.2489 14.8186 38.6321 16.9241 39.171 18.3013C39.8046 19.9132 39.4172 19.8816 39.2487 19.4878C39.192 19.3568 39.0154 18.9756 38.7702 18.4821C38.2638 17.4629 37.1449 17.862 37.1449 19V19C37.1449 19.7376 36.919 21.2129 36.5819 21.2129C36.2417 21.2129 36.7231 20.2035 36.7004 19.5972C36.6824 19.102 36.4124 16.4849 36.2137 14.9427C36.1398 14.3695 35.9139 13.83 35.5763 13.361L34.6467 12.0696C34.4049 11.7338 33.8934 11.4725 33.8934 11.0587V11.0587C33.8934 10.5503 33.7789 10.0606 34.0119 10.0606C34.2451 10.0606 35.6383 11.3528 35.6383 11.5802V11.5802Z" fill="white"/>
<path id="Vector_25" d="M40.3072 12.0734C40.307 12.2567 39.9794 12.3642 39.9841 12.5474C39.9955 12.9925 40.0339 13.7586 40.1552 14.8052C40.3549 16.5468 40.3849 17.8092 40.3849 18.5006C40.3849 19.1773 40.5872 22.3853 37.342 22.5224C37.1981 22.5285 37.0032 22.5946 36.92 22.4771C36.9144 22.4691 36.9111 22.4599 36.9111 22.4492C36.9111 22.3643 37.1208 22.2903 37.4263 22.1869C37.7318 22.0853 40.0449 21.3771 39.852 18.6321C39.6934 16.3318 39.4428 12.9122 39.2776 11.782C39.2405 11.528 39.0515 11.3208 39.0515 11.0641V11.0641C39.0515 10.7926 39.5812 10.2748 39.7219 10.2748C39.8612 10.2748 40.3072 11.7814 40.3072 12.0734V12.0734Z" fill="white"/>
<path id="Vector_26" d="M42.2334 12.3612C42.2328 12.5885 41.7045 12.7191 41.7303 12.9449C41.893 14.3689 42.2896 17.805 42.4423 18.8223C42.6385 20.1142 41.9239 20.7467 41.7962 20.7467C41.6682 20.7467 41.8257 20.3011 41.8257 19.5967C41.8257 18.8888 41.133 14.2839 40.9812 13.0658C40.8332 11.8493 40.6738 11.8547 40.6738 11.119C40.6738 10.3833 41.1406 10.1061 41.2607 10.1061C41.352 10.1061 41.4661 10.3952 41.5156 10.5341C41.5329 10.5825 41.5485 10.6309 41.5653 10.6795C41.6454 10.9125 41.9015 11.6394 42.0516 11.8696C42.2334 12.1488 42.2334 12.2688 42.2334 12.3612V12.3612Z" fill="white"/>
<path id="Vector_27" d="M40.8496 20.7616C40.8489 20.2945 41.3602 20.3621 41.5018 20.8073C41.5812 21.0567 41.6893 21.2553 41.8365 21.3393C41.9326 21.3942 42.064 21.3893 42.1445 21.3135C42.2649 21.2001 42.4664 20.9163 42.7742 20.2181C43.3483 18.9262 43.6184 18.6856 43.8889 18.6856C44.1595 18.6856 44.6947 19.7598 45.228 19.7598C45.7632 19.7598 45.9221 18.9336 45.9221 18.3345C45.9221 18.0605 45.8626 17.1079 45.7976 16.1484C45.695 14.6337 45.1348 13.1868 44.2015 11.9894V11.9894C44.0032 11.7351 43.8368 11.4557 43.8305 11.1333C43.83 11.1067 43.8297 11.0788 43.8297 11.0492C43.8297 10.565 43.7591 10.2525 43.9409 10.2525C44.1227 10.2525 44.389 10.6573 44.7318 10.9512C45.0743 11.2453 45.2155 11.3488 45.2155 11.5187V11.5187C45.2155 11.6134 45.0846 11.7661 45.1377 11.8445L45.2223 11.9692C45.3039 12.0895 45.492 12.0227 45.4794 11.8779L45.4453 11.484C45.4415 11.4404 45.4259 11.3987 45.4039 11.3608C45.3574 11.2808 45.2818 11.1261 45.2818 10.9663C45.2818 10.737 45.5562 10.1695 45.7287 10.1695C45.9025 10.1695 46.4419 11.6631 46.4419 11.9532V11.9532C46.4419 12.0705 46.2208 12.2069 46.2269 12.3239L46.2841 13.4203C46.2882 13.4991 46.3153 13.575 46.3619 13.6387V13.6387C46.6133 13.9814 47.1698 13.7528 47.1154 13.3313C47.025 12.6311 46.9385 11.8495 46.9174 11.2868C46.9116 11.1341 46.8532 10.9727 46.8532 10.8199V10.8199C46.8532 10.6479 47.1998 10.0804 47.3716 10.0804C47.5459 10.0804 48.0126 11.674 48.0126 12.0305V12.0305C48.0126 12.1934 47.7504 12.4161 47.7627 12.5786L47.9867 15.5305C48.0061 15.7866 48.0951 16.032 48.2427 16.2422C48.6404 16.8089 49.4391 17.966 49.6128 18.3621C49.846 18.8944 49.8243 19.6709 49.7386 19.6321C49.691 19.6116 49.4487 19.1605 49.0792 18.5813C48.8145 18.1663 48.203 18.3749 48.168 18.8659V18.8659C48.1401 19.2582 47.869 19.2216 47.8575 18.8285C47.8529 18.6717 47.8497 18.5208 47.8497 18.4007C47.8497 18.0358 47.7063 17.0904 47.6516 16.7424C47.638 16.656 47.6042 16.5743 47.5534 16.5031V16.5031C47.2206 16.0371 46.4819 16.2966 46.5107 16.8685C46.5542 17.7291 46.5942 18.633 46.5942 19.0387C46.5942 19.924 46.1627 20.7373 45.3645 20.7373C45.2706 20.7373 45.1782 20.7237 45.088 20.6997C44.2452 20.4755 43.4188 20.2954 43.0327 21.0774V21.0774C42.4677 22.2088 42.294 22.3087 42.0534 22.3087C41.8128 22.3087 40.8496 21.7356 40.8496 20.7616V20.7616Z" fill="white"/>
<path id="Vector_28" d="M49.4401 11.2437C49.4219 11.0909 49.3446 10.929 49.3446 10.7752V10.7752C49.3446 10.5904 49.6742 10.0821 49.8265 10.0821C49.9764 10.0821 50.6778 11.5981 50.6778 11.8882V11.8882C50.6778 12.0601 50.3651 12.1336 50.3755 12.3052C50.3975 12.6652 50.4415 13.2959 50.5298 14.3895C50.7094 16.6559 51.7482 20.7616 48.7521 21.9759C45.7559 23.1924 49.3557 21.1792 49.8631 19.924C50.3669 18.667 50.0706 17.0292 49.9001 15.3338C49.7609 13.9508 49.5224 11.933 49.4401 11.2437Z" fill="white"/>
<path id="Vector_29" d="M45.4529 31.901C45.3684 31.8949 45.2837 31.8994 45.1989 31.8994H42.2948C42.182 31.8994 42.0894 31.8102 42.0852 31.6975V31.6975C42.0829 31.6375 42.1067 31.5798 42.1463 31.5347C42.2114 31.4606 42.3021 31.3407 42.3021 31.2483C42.3021 31.1024 42.0927 30.7089 41.9414 30.7089C41.7912 30.7089 41.5653 31.0379 41.5653 31.228C41.5653 31.3498 41.6596 31.4713 41.7278 31.5431C41.7691 31.5866 41.7964 31.6432 41.7964 31.7033V31.7033C41.7964 31.8144 41.7062 31.9043 41.5951 31.904L25.7122 31.854C23.371 31.8466 23.052 32.9984 25.3925 33.0563V33.0563C29.8364 33.1682 39.9334 32.8864 41.6132 32.8378C41.7473 32.8339 41.8521 32.9417 41.8521 33.0759V33.0759C41.8521 33.1497 41.817 33.2188 41.7662 33.2723C41.6997 33.3424 41.6189 33.4507 41.6189 33.5625C41.6189 33.7524 41.8151 34.0748 41.991 34.0748C42.0024 34.0748 42.0135 34.0732 42.0244 34.0702C42.2902 33.9966 42.4647 33.6942 42.7406 33.6942H43.0228C43.2351 33.6942 43.4662 33.9249 43.6785 33.9249V33.9249V33.9249C43.9213 33.9249 44.1614 33.6631 44.4042 33.6631H44.753C45.0276 33.6631 45.2738 33.851 45.5392 33.9212C45.5746 33.9306 45.6123 33.936 45.6521 33.936C45.9319 33.936 46.2893 33.8017 46.2893 32.8107C46.2891 32.0479 45.7144 31.9198 45.4529 31.901ZM45.0486 33.1146C45.0445 33.209 44.9846 33.3738 44.8901 33.3749L44.3161 33.3816C44.1056 33.3841 43.9114 33.197 43.7014 33.1814C43.6938 33.1808 43.686 33.1805 43.678 33.1805V33.1805C43.4628 33.1805 43.2744 33.4216 43.0592 33.4248L42.5271 33.4327C42.4082 33.4345 42.3041 33.3531 42.2263 33.2632C42.222 33.2582 42.2175 33.2532 42.2129 33.2482C42.1608 33.1928 42.1166 33.1261 42.1127 33.0501V33.0501C42.106 32.921 42.2071 32.8119 42.3363 32.8088L44.6872 32.7516C44.817 32.7485 45.0542 32.9849 45.0486 33.1146V33.1146Z" fill="white"/>
</g>
</g>
</g>
</svg>
