<svg width="34" height="34" viewBox="0 0 34 34" fill="none" xmlns="http://www.w3.org/2000/svg">
<g id="pen-circle 1" clip-path="url(#clip0_825_2178)">
<path id="Vector" d="M19.4792 16.524L14.5817 21.4214C13.7898 22.2133 12.6947 22.6667 11.577 22.6667H11.3333V22.423C11.3333 21.3053 11.7867 20.2102 12.5786 19.4182L17.476 14.5208L19.4792 16.524ZM20.9567 11.0401L19.4792 12.5177L21.4823 14.5208L22.9599 13.0432C23.5124 12.4907 23.5124 11.5926 22.9599 11.0401C22.4074 10.4876 21.5107 10.4862 20.9567 11.0401ZM34 17C34 26.3741 26.3741 34 17 34C7.62592 34 0 26.3741 0 17C0 7.62592 7.62592 0 17 0C26.3741 0 34 7.62592 34 17ZM24.9631 9.03692C23.3056 7.37942 20.6111 7.37942 18.9536 9.03692L10.5754 17.4151C9.23808 18.7524 8.5 20.5317 8.5 22.423V24.0833C8.5 24.8667 9.13325 25.5 9.91667 25.5H11.577C13.4682 25.5 15.2476 24.7619 16.5849 23.4246L24.9631 15.0464C26.6206 13.3889 26.6206 10.6944 24.9631 9.03692Z" fill="#293273"/>
</g>
<defs>
<clipPath id="clip0_825_2178">
<rect width="34" height="34" fill="white"/>
</clipPath>
</defs>
</svg>
