<svg width="33" height="33" viewBox="0 0 33 33" fill="none" xmlns="http://www.w3.org/2000/svg">
<path id="Vector" d="M16.5 0C13.2366 0 10.0465 0.967708 7.3331 2.78075C4.61969 4.59379 2.50484 7.17074 1.25599 10.1857C0.00714922 13.2007 -0.319606 16.5183 0.31705 19.719C0.953706 22.9197 2.52518 25.8597 4.83274 28.1673C7.14031 30.4748 10.0803 32.0463 13.281 32.6829C16.4817 33.3196 19.7993 32.9929 22.8143 31.744C25.8293 30.4952 28.4062 28.3803 30.2192 25.6669C32.0323 22.9535 33 19.7634 33 16.5C33 12.1239 31.2616 7.92709 28.1673 4.83274C25.0729 1.73839 20.8761 0 16.5 0ZM21.9127 27.1287H11.0873C10.7226 27.1287 10.3729 26.9839 10.115 26.726C9.85718 26.4682 9.71232 26.1184 9.71232 25.7537C9.71232 25.3891 9.85718 25.0393 10.115 24.7815C10.3729 24.5236 10.7226 24.3787 11.0873 24.3787H21.9127C22.2774 24.3787 22.6271 24.5236 22.885 24.7815C23.1428 25.0393 23.2877 25.3891 23.2877 25.7537C23.2877 26.1184 23.1428 26.4682 22.885 26.726C22.6271 26.9839 22.2774 27.1287 21.9127 27.1287ZM22.8848 16.786L17.468 22.2062C17.2102 22.464 16.8605 22.6088 16.4959 22.6088C16.1313 22.6088 15.7816 22.464 15.5238 22.2062L10.1152 16.7984C9.85682 16.5405 9.71145 16.1906 9.71107 15.8256C9.71068 15.4606 9.85531 15.1104 10.1131 14.8521C10.371 14.5937 10.7209 14.4483 11.0859 14.4479C11.4509 14.4475 11.8011 14.5922 12.0594 14.85L15.125 17.9156V5.75094C15.125 5.38626 15.2699 5.03653 15.5277 4.77867C15.7856 4.5208 16.1353 4.37594 16.5 4.37594C16.8647 4.37594 17.2144 4.5208 17.4723 4.77867C17.7301 5.03653 17.875 5.38626 17.875 5.75094V17.9073L20.9406 14.8417C21.1999 14.5913 21.5472 14.4527 21.9077 14.4558C22.2683 14.459 22.6131 14.6036 22.8681 14.8585C23.123 15.1134 23.2676 15.4583 23.2707 15.8188C23.2739 16.1793 23.1353 16.5267 22.8848 16.786Z" fill="#FF881B"/>
</svg>
