<svg width="63" height="63" viewBox="0 0 63 63" fill="none" xmlns="http://www.w3.org/2000/svg">
<g id="Frame 44731">
<g id="Group 44324">
<path id="Rectangle 11" opacity="0.2" d="M52.921 0H10.081C4.51395 0 0.000976562 4.51297 0.000976562 10.08V52.92C0.000976562 58.487 4.51395 63 10.081 63H52.921C58.488 63 63.001 58.487 63.001 52.92V10.08C63.001 4.51297 58.488 0 52.921 0Z" fill="#262F6A"/>
<g id="keys">
<path id="Path 2835" d="M19.5886 20.2383C19.7778 20.2383 19.9592 20.3134 20.0929 20.4472C20.2267 20.5809 20.3018 20.7623 20.3018 20.9514V21.8423C20.3018 22.0314 20.2267 22.2128 20.0929 22.3465C19.9592 22.4803 19.7778 22.5554 19.5886 22.5554C19.3995 22.5554 19.2181 22.4803 19.0844 22.3465C18.9506 22.2128 18.8755 22.0314 18.8755 21.8423V20.9514C18.8755 20.7623 18.9506 20.5809 19.0844 20.4472C19.2181 20.3134 19.3995 20.2383 19.5886 20.2383Z" fill="#262F6A"/>
<path id="Path 2836" fill-rule="evenodd" clip-rule="evenodd" d="M17.8072 10.0801C17.6199 10.0801 17.4344 10.117 17.2614 10.1887C17.0883 10.2603 16.9311 10.3654 16.7986 10.4978C16.6662 10.6303 16.5611 10.7875 16.4894 10.9606C16.4178 11.1336 16.3809 11.3191 16.3809 11.5064V22.9132C16.3809 23.1005 16.4178 23.286 16.4894 23.459C16.5611 23.6321 16.6662 23.7893 16.7986 23.9217C16.9311 24.0542 17.0883 24.1592 17.2614 24.2309C17.4344 24.3026 17.6199 24.3395 17.8072 24.3395H21.5469C21.9251 24.3395 22.2879 24.1892 22.5554 23.9217C22.8229 23.6543 22.9732 23.2915 22.9732 22.9132H23.7745C24.196 22.926 24.6097 23.0297 24.9872 23.2174C25.3648 23.4051 25.6973 23.6723 25.9619 24.0006C26.7254 24.9565 27.6545 25.7674 28.7049 26.3946C29.4464 26.7729 30.2428 27.0323 31.0649 27.1632L31.3963 27.2236C31.9998 27.3159 32.5942 27.46 33.1729 27.6546C34.2313 28.3249 35.8995 29.3215 37.2351 30.1103C37.667 30.3663 38.1609 30.4987 38.6629 30.4929C39.1649 30.4871 39.6556 30.3434 40.0815 30.0775V31.6941C39.0372 31.8447 38.0676 32.3223 37.3118 33.0584C36.556 33.7944 36.0528 34.7511 35.8746 35.791C35.6965 36.8308 35.8524 37.9004 36.32 38.8461C36.7877 39.7918 37.543 40.565 38.4775 41.0547V41.507C38.4774 41.885 38.6274 42.2475 38.8945 42.515L39.1163 42.7368L38.8076 43.1072C38.5944 43.3634 38.4775 43.6861 38.4775 44.0194V45.0274C38.4723 45.2543 38.5237 45.4789 38.6268 45.681C38.73 45.8831 38.8817 46.0564 39.0684 46.1854L38.8089 46.4941C38.5956 46.7502 38.4788 47.073 38.4787 47.4063V49.1086C38.4787 49.4869 38.629 49.8497 38.8965 50.1171C39.164 50.3846 39.5268 50.5349 39.9051 50.5349H40.8034C41.0205 50.5348 41.2347 50.4851 41.4297 50.3897C41.6247 50.2943 41.7953 50.1556 41.9286 49.9843L42.8106 48.8503C43.0051 48.5998 43.1106 48.2917 43.1105 47.9746V41.0559C44.045 40.5663 44.8003 39.7931 45.268 38.8474C45.7356 37.9017 45.8915 36.8321 45.7133 35.7922C45.5351 34.7524 45.032 33.7957 44.2762 33.0596C43.5204 32.3236 42.5507 31.846 41.5065 31.6954V29.7777C41.9853 30.3305 42.5966 30.7527 43.2831 31.0049C43.4597 31.0699 43.6483 31.0963 43.836 31.0823C44.0236 31.0683 44.2062 31.0142 44.3712 30.9237C44.5362 30.8332 44.6799 30.7084 44.7926 30.5576C44.9053 30.4069 44.9843 30.2337 45.0244 30.0498L46.9371 21.2941C46.9874 21.064 46.9799 20.825 46.9153 20.5985C46.8506 20.3721 46.7309 20.1651 46.5667 19.9963L40.9055 14.1675C40.7339 13.9896 40.5189 13.8593 40.2818 13.7895L32.0049 11.3842C31.8751 11.3465 31.7406 11.3274 31.6054 11.3275H22.9644C22.9207 10.9825 22.7526 10.6654 22.4916 10.4356C22.2305 10.2059 21.8946 10.0795 21.5469 10.0801H17.8072ZM37.2326 36.6358C37.2316 35.8134 37.5149 35.016 38.0346 34.3785C38.5542 33.7411 39.2782 33.3029 40.084 33.1381V35.5623C40.084 35.7515 40.1591 35.9329 40.2929 36.0666C40.4266 36.2003 40.608 36.2755 40.7971 36.2755C40.9863 36.2755 41.1677 36.2003 41.3014 36.0666C41.4352 35.9329 41.5103 35.7515 41.5103 35.5623V33.1381C42.2653 33.2923 42.95 33.6869 43.4619 34.2629C43.9738 34.8389 44.2854 35.5651 44.3499 36.333C44.4145 37.1009 44.2286 37.869 43.82 38.5223C43.4114 39.1757 42.8022 39.6791 42.0836 39.9572C41.9938 39.9921 41.912 40.0448 41.8432 40.1121C41.7743 40.1795 41.7198 40.2601 41.6829 40.3491C41.6502 40.4259 41.6829 47.9721 41.6829 47.9721L40.8009 49.1061H39.9025V47.4088L40.1634 47.0964C40.2905 46.9468 40.3851 46.7725 40.4412 46.5844C40.4973 46.3963 40.5136 46.1985 40.489 46.0038C40.4645 45.8091 40.3997 45.6216 40.2987 45.4533C40.1977 45.2849 40.0628 45.1395 39.9025 45.0262V44.0182L40.2112 43.6477C40.439 43.3745 40.5564 43.0261 40.5403 42.6708C40.5242 42.3154 40.3758 41.979 40.1243 41.7275L39.9025 41.5057V40.9123C39.9412 40.8241 39.9616 40.729 39.9625 40.6328C39.9634 40.5365 39.9448 40.441 39.9078 40.3522C39.8709 40.2633 39.8163 40.1828 39.7474 40.1156C39.6785 40.0483 39.5967 39.9957 39.5069 39.961C38.8361 39.7012 38.2595 39.2446 37.853 38.6512C37.4464 38.0577 37.2288 37.3552 37.2288 36.6358H37.2326ZM22.9757 12.7538V21.4869H23.7771C24.4055 21.499 25.0239 21.6474 25.5895 21.9217C26.1551 22.196 26.6544 22.5897 27.0531 23.0757C27.6957 23.8902 28.4761 24.5857 29.3589 25.1308C29.9761 25.4435 30.6392 25.6562 31.3232 25.7608L31.6269 25.815C32.3139 25.9213 32.9905 26.0866 33.6492 26.3089C33.749 26.3441 33.8446 26.3906 33.9339 26.4475C34.9709 27.1039 36.6215 28.0855 37.9659 28.8805C38.1349 28.9801 38.3239 29.0409 38.5193 29.0585C38.7147 29.076 38.9115 29.0499 39.0956 28.982C39.2796 28.9141 39.4463 28.8061 39.5834 28.6659C39.7206 28.5256 39.8249 28.3567 39.8887 28.1712C39.9919 27.8401 39.9774 27.4836 39.8476 27.1621C39.7178 26.8406 39.4808 26.5738 39.1768 26.4072C37.8228 25.667 36.5842 24.7332 35.5001 23.6352C34.9686 23.0904 34.5822 22.4211 34.3762 21.6885C34.2816 21.2995 34.2792 20.8939 34.3691 20.5039C34.459 20.1138 34.6388 19.7502 34.894 19.4419C35.1447 19.1049 35.4833 18.8433 35.8726 18.6858C36.2619 18.5282 36.6871 18.4808 37.1016 18.5485C37.8711 18.6948 38.5956 19.0193 39.2171 19.4961C40.2696 20.2875 41.222 21.204 42.0534 22.2252C42.1762 22.3747 42.2667 22.5482 42.3189 22.7345C42.3712 22.9208 42.3842 23.116 42.357 23.3076L41.9085 26.5382C41.82 27.1741 41.9445 27.8213 42.2624 28.379C42.5804 28.9368 43.0739 29.3736 43.6662 29.6214L45.5486 20.9955L39.8874 15.1667L31.6067 12.7538H22.9757ZM17.8097 11.5064H21.5469V22.9132H17.8047L17.8097 11.5064ZM40.9433 23.1211L40.5729 25.723C40.37 25.5069 40.1365 25.3218 39.8799 25.1736C38.657 24.5066 37.5367 23.6668 36.5535 22.6801C36.1857 22.3135 35.9135 21.8622 35.7609 21.3659C35.7153 21.185 35.7144 20.9957 35.7583 20.8144C35.8022 20.633 35.8896 20.4651 36.0129 20.3251C36.1098 20.1841 36.246 20.0746 36.4046 20.0103C36.5632 19.946 36.7372 19.9297 36.905 19.9635C37.4468 20.0809 37.9548 20.32 38.3905 20.6628C39.3359 21.3782 40.1921 22.2044 40.9408 23.1236L40.9433 23.1211Z" fill="#262F6A"/>
<path id="Path 2837" d="M35.4334 34.1272C35.529 34.1328 35.6247 34.1191 35.7149 34.087C35.805 34.0548 35.8878 34.0048 35.9582 33.9399C36.0286 33.8751 36.0853 33.7967 36.1248 33.7095C36.1642 33.6223 36.1858 33.528 36.1881 33.4323C36.1903 33.3366 36.1733 33.2414 36.138 33.1524C36.1028 33.0634 36.0499 32.9825 35.9827 32.9143C35.9154 32.8462 35.8352 32.7923 35.7466 32.7559C35.6581 32.7194 35.5632 32.7012 35.4674 32.7022C34.6756 32.6828 33.8906 32.8521 33.1771 33.1961C32.4637 33.5402 31.8424 34.0491 31.3646 34.6808C30.8868 35.3125 30.5662 36.0488 30.4293 36.829C30.2924 37.6091 30.3432 38.4106 30.5774 39.1672L30.2561 39.486C30.1231 39.6181 30.0176 39.7752 29.9453 39.9481C29.8731 40.1211 29.8357 40.3066 29.8352 40.494V40.8052L29.3539 40.8468C29.0212 40.8753 28.709 41.0198 28.4719 41.2551L27.76 41.9619C27.5925 42.1159 27.4672 42.3102 27.3961 42.5264C27.3251 42.7426 27.3107 42.9734 27.3543 43.1967L26.9498 43.232C26.6171 43.2607 26.305 43.4052 26.0678 43.6402L24.8595 44.8398C24.7266 44.9716 24.6209 45.1284 24.5486 45.301C24.4763 45.4737 24.4387 45.659 24.438 45.8462C24.4373 46.0334 24.4735 46.2189 24.5445 46.3922C24.6155 46.5654 24.72 46.7229 24.8519 46.8558L25.4819 47.4933C25.6348 47.6474 25.8209 47.7645 26.026 47.8356C26.231 47.9068 26.4496 47.9302 26.6651 47.9041L28.0939 47.7302C28.4088 47.6918 28.7019 47.5495 28.9268 47.3257L33.8408 42.4508C35.0469 42.8315 36.3524 42.7415 37.4948 42.1988C37.6655 42.1174 37.797 41.9716 37.8602 41.7933C37.9234 41.615 37.9132 41.4189 37.8318 41.2481C37.7505 41.0774 37.6046 40.9459 37.4263 40.8827C37.248 40.8195 37.0519 40.8297 36.8812 40.9111C36.4154 41.132 35.9075 41.2496 35.3921 41.2559C34.8766 41.2622 34.366 41.157 33.895 40.9476L33.2133 40.644L32.9411 41.3382L27.9301 46.3152L26.5013 46.4891L25.8713 45.8515L27.0796 44.652L27.4841 44.6167C27.6808 44.6058 27.8729 44.553 28.0476 44.4619C28.2223 44.3708 28.3756 44.2435 28.4972 44.0885C28.6188 43.9335 28.706 43.7543 28.7529 43.5629C28.7998 43.3716 28.8054 43.1724 28.7693 42.9787L29.4812 42.2719L29.9625 42.2303C30.3179 42.1981 30.6483 42.034 30.8885 41.7702C31.1288 41.5063 31.2614 41.1621 31.2603 40.8052C31.2603 40.0681 31.6837 40.0719 31.6837 40.0719L32.3792 39.8048L32.0806 39.1219C31.8401 38.5725 31.742 37.9713 31.7955 37.374C31.849 36.7767 32.0523 36.2025 32.3865 35.7046C32.7208 35.2067 33.1752 34.8011 33.7078 34.5254C34.2404 34.2497 34.8339 34.1127 35.4334 34.1272Z" fill="#262F6A"/>
</g>
</g>
</g>
</svg>
