<svg width="63" height="63" viewBox="0 0 63 63" fill="none" xmlns="http://www.w3.org/2000/svg">
<g id="Frame 44730">
<g id="Group 44323">
<path id="Rectangle 11" opacity="0.2" d="M52.921 0H10.081C4.51395 0 0.000976562 4.51297 0.000976562 10.08V52.92C0.000976562 58.487 4.51395 63 10.081 63H52.921C58.488 63 63.001 58.487 63.001 52.92V10.08C63.001 4.51297 58.488 0 52.921 0Z" fill="#262F6A"/>
<path id="real-estate" d="M51.2438 39.1406C50.901 38.5373 50.3764 38.0578 49.7449 37.7704C49.1133 37.4831 48.4072 37.4025 47.7271 37.5404V25.9635L48.1757 26.3277C48.3402 26.4624 48.5464 26.5359 48.7591 26.5356C48.7843 26.5356 48.8095 26.5356 48.8347 26.528C48.8599 26.5204 48.8674 26.5356 48.8838 26.5356C49.0753 26.5355 49.2621 26.4761 49.4185 26.3656C49.5749 26.2551 49.6932 26.0989 49.7573 25.9185C49.8213 25.738 49.828 25.5421 49.7762 25.3578C49.7245 25.1734 49.617 25.0096 49.4685 24.8887L47.392 23.1953L34.6118 12.8003C34.4203 12.6717 34.1948 12.603 33.9642 12.603C33.7335 12.603 33.508 12.6717 33.3165 12.8003L18.4485 24.8963C18.2953 25.0221 18.1865 25.1936 18.1381 25.3858C18.0896 25.578 18.1042 25.7807 18.1795 25.964C18.2548 26.1474 18.3869 26.3017 18.5565 26.4043C18.726 26.507 18.924 26.5526 19.1214 26.5343C19.3467 26.5452 19.5682 26.473 19.7438 26.3314L20.1924 25.9673V36.2766C18.9278 36.8364 17.7506 37.5756 16.6971 38.4715L13.1061 40.3023C12.8852 40.4177 12.7186 40.6156 12.6425 40.8529C12.6059 40.971 12.5931 41.0952 12.6048 41.2182C12.6165 41.3413 12.6524 41.4608 12.7105 41.5699L17.5741 50.6734C17.6318 50.7861 17.713 50.8852 17.812 50.964C17.9111 51.0429 18.0259 51.0997 18.1487 51.1308C18.2266 51.1549 18.3077 51.1672 18.3893 51.1673C18.562 51.1668 18.7311 51.1174 18.8769 51.0249L22.5045 48.7695C22.5171 48.7695 22.5234 48.7506 22.536 48.7443L22.5788 48.7254C22.7289 48.6448 22.8967 48.6026 23.0671 48.6026C23.2375 48.6026 23.4052 48.6448 23.5553 48.7254C27.9489 51.0615 30.6504 51.5806 32.1888 51.5806C32.4909 51.5812 32.7925 51.5585 33.091 51.5125C33.9869 51.4634 41.9223 50.8447 50.1224 43.2129L50.7902 42.5451C51.2291 42.1068 51.5116 41.5362 51.5942 40.9215C51.6769 40.3067 51.5551 39.6818 51.2476 39.1431L51.2438 39.1406ZM22.0484 24.4553L33.9629 14.7634L45.8775 24.454V38.4174L43.9623 39.4921C42.6027 40.2481 41.3793 41.0041 40.2541 41.7853C40.0689 41.9113 39.8962 42.0373 39.7161 42.1633C39.777 42.0428 39.8247 41.9161 39.8584 41.7853C39.9667 41.437 39.9667 41.064 39.8584 40.7156C39.7731 40.4567 39.6359 40.218 39.4553 40.0139C39.2746 39.8099 39.0542 39.6448 38.8076 39.5287V31.3525C38.8062 30.0675 38.2977 28.835 37.3926 27.9228C36.9067 27.434 36.3215 27.0552 35.6765 26.8122C35.0315 26.5691 34.3419 26.4675 33.6542 26.5141C32.4048 26.6163 31.2411 27.1897 30.3988 28.1181C29.5565 29.0465 29.0987 30.2604 29.1182 31.5138V36.2161C26.9253 35.1206 24.3979 34.8999 22.0484 35.5987V24.4553ZM36.9554 39.036C36.8622 39.0234 36.7702 39.0171 36.6769 39.0108C32.0603 38.7021 31.1959 37.8428 31.109 37.7508C31.0662 37.7017 31.0221 37.6525 30.9729 37.6021V31.5138C30.9598 30.7334 31.2403 29.9765 31.7588 29.3931C32.2773 28.8097 32.9961 28.4424 33.7726 28.3638C34.1958 28.3353 34.6201 28.3972 35.0175 28.5453C35.4148 28.6935 35.7761 28.9245 36.0772 29.2231C36.6398 29.7877 36.9568 30.5517 36.9592 31.3488L36.9554 39.036ZM18.7421 48.9295L14.787 41.5258L16.8572 40.4623L20.7821 47.6569L18.7421 48.9295ZM49.4622 41.2435L48.8322 41.8735C48.3282 42.3431 47.8212 42.7879 47.3113 43.2079C47.2244 43.2759 47.1387 43.3503 47.0518 43.4183C39.7438 49.3327 33.0355 49.6477 32.9612 49.6477L32.8188 49.6666C32.0401 49.8153 29.655 49.8582 24.4323 47.0836C24.0145 46.8581 23.5475 46.7391 23.0727 46.7371C22.8755 46.7393 22.6789 46.76 22.4856 46.7989L20.4419 43.0075C20.3903 42.927 20.3448 42.8428 20.3058 42.7555L18.5015 39.4002C19.039 39.0071 19.605 38.6546 20.1949 38.3455C20.7885 38.03 21.4087 37.7673 22.0484 37.5606C23.1167 37.1682 24.2565 37.0083 25.3915 37.0915C26.5266 37.1748 27.6309 37.4992 28.6306 38.0431C28.803 38.1418 28.9662 38.2556 29.1182 38.3833C29.3327 38.5592 29.5313 38.7536 29.7117 38.9642C30.0621 39.3398 30.4928 39.6314 30.9717 39.8172C32.7631 40.4651 34.6478 40.8178 36.5522 40.8618C36.7009 40.8744 36.8307 40.887 36.9542 40.8983C37.3554 40.9107 37.7464 41.028 38.0882 41.2385C38.0198 41.4538 37.8881 41.6436 37.7101 41.7828C37.6361 41.8573 37.5578 41.9276 37.4758 41.9932C37.3156 42.1257 37.144 42.2438 36.963 42.346C35.0775 43.3832 32.8848 43.7163 30.7764 43.286C30.3107 43.1957 29.8521 43.0719 29.4042 42.9156C29.3208 42.8863 29.233 42.8719 29.1447 42.8727C28.9716 42.8617 28.799 42.9 28.6469 42.9832C28.4948 43.0664 28.3694 43.1911 28.2853 43.3427C28.2334 43.4345 28.198 43.5347 28.1808 43.6388C28.1546 43.8022 28.1716 43.9696 28.2302 44.1243C28.2888 44.279 28.3869 44.4157 28.5147 44.5208C28.6602 44.614 28.8157 44.6905 28.9783 44.7489C29.5805 44.9755 30.2101 45.1209 30.8507 45.181C37.5287 45.7619 40.6523 43.7472 40.6523 43.7472L40.8186 43.6426L43.7909 41.7891L44.8783 41.1087L45.8863 40.5405L47.4751 39.6509C47.5061 39.6383 47.5353 39.6218 47.5621 39.6018C47.618 39.5591 47.6779 39.5219 47.741 39.4909C48.0664 39.3254 48.4425 39.2896 48.7933 39.3906C49.1441 39.4916 49.4435 39.722 49.631 40.0352C49.7323 40.2301 49.7712 40.4515 49.7424 40.6692C49.7135 40.887 49.6183 41.0906 49.4697 41.2524L49.4622 41.2435Z" fill="#262F6A"/>
</g>
</g>
</svg>
