<svg width="63" height="63" viewBox="0 0 63 63" fill="none" xmlns="http://www.w3.org/2000/svg">
<g id="Frame 44735">
<g id="Group 44723">
<path id="Path 2806" opacity="0.2" d="M10.081 0H52.921C55.5944 0 58.1582 1.062 60.0486 2.95236C61.939 4.84273 63.001 7.40662 63.001 10.08V52.92C63.001 55.5934 61.939 58.1573 60.0486 60.0476C58.1582 61.938 55.5944 63 52.921 63H10.081C7.40759 63 4.84371 61.938 2.95334 60.0476C1.06297 58.1573 0.000976563 55.5934 0.000976562 52.92V10.08C0.000976563 7.40662 1.06297 4.84273 2.95334 2.95236C4.84371 1.062 7.40759 0 10.081 0Z" fill="#262F6A"/>
<g id="budget">
<g id="Group 44679">
<g id="Group 44678">
<path id="Path 2971" d="M45.4679 24.8712H42.7627V19.5465C42.7618 18.6585 42.4194 17.805 41.8064 17.1626L40.0575 15.333C38.5732 13.8034 38.3867 13.3725 37.5022 12.9428C37.0352 12.7179 36.5237 12.6007 36.0053 12.6001H23.2327C22.3178 12.6008 21.4406 12.9644 20.7936 13.6112C20.1465 14.258 19.7826 15.1351 19.7816 16.05V34.6501H19.0546C18.6594 34.6478 18.2726 34.7633 17.9433 34.9818C17.614 35.2002 17.3573 35.5118 17.2058 35.8767C17.0542 36.2417 17.0148 36.6435 17.0925 37.0309C17.1702 37.4183 17.3616 37.7738 17.6421 38.0521C17.2714 38.4241 17.0634 38.928 17.0638 39.4532C17.0641 39.5852 17.0771 39.7169 17.1028 39.8463C15.8052 39.9789 14.6101 40.6115 13.771 41.6103C12.932 42.609 12.5148 43.8953 12.6081 45.1963C12.7013 46.4974 13.2976 47.711 14.2705 48.5799C15.2434 49.4488 16.5165 49.9046 17.8198 49.8507H27.6352C28.0296 49.852 28.4154 49.736 28.7438 49.5174C29.0721 49.2989 29.3281 48.9877 29.4792 48.6234C29.6303 48.2591 29.6697 47.8581 29.5924 47.4713C29.5151 47.0846 29.3246 46.7295 29.0451 46.4513C29.3913 46.1036 29.5961 45.6398 29.6197 45.1497H30.3668V45.5491C30.3672 46.7689 30.852 47.9387 31.7147 48.8012C32.5774 49.6636 33.7473 50.1481 34.9671 50.1481H45.4705C46.6888 50.1468 47.8568 49.6622 48.7183 48.8007C49.5798 47.9392 50.0644 46.7712 50.0657 45.5529V29.4665C50.0644 28.2477 49.5794 27.0793 48.7174 26.2177C47.8554 25.3562 46.6867 24.8719 45.4679 24.8712ZM40.7732 17.79H37.8374V14.6854L40.7732 17.79ZM19.0546 35.8358H27.6352C27.7443 35.8315 27.8532 35.8492 27.9554 35.888C28.0575 35.9269 28.1507 35.9859 28.2295 36.0616C28.3082 36.1373 28.3709 36.2282 28.4137 36.3287C28.4565 36.4292 28.4786 36.5373 28.4786 36.6466C28.4786 36.7558 28.4565 36.8639 28.4137 36.9645C28.3709 37.065 28.3082 37.1558 28.2295 37.2315C28.1507 37.3073 28.0575 37.3663 27.9554 37.4051C27.8532 37.4439 27.7443 37.4617 27.6352 37.4574H19.0546C18.9454 37.4617 18.8365 37.4439 18.7344 37.4051C18.6322 37.3663 18.539 37.3073 18.4602 37.2315C18.3815 37.1558 18.3188 37.065 18.276 36.9645C18.2332 36.8639 18.2112 36.7558 18.2112 36.6466C18.2112 36.5373 18.2332 36.4292 18.276 36.3287C18.3188 36.2282 18.3815 36.1373 18.4602 36.0616C18.539 35.9859 18.6322 35.9269 18.7344 35.888C18.8365 35.8492 18.9454 35.8315 19.0546 35.8358ZM19.0546 38.6367H27.6352C27.8447 38.645 28.0429 38.734 28.1882 38.8852C28.3335 39.0363 28.4146 39.2379 28.4146 39.4475C28.4146 39.6572 28.3335 39.8588 28.1882 40.0099C28.0429 40.1611 27.8447 40.2501 27.6352 40.2584H21.7132C21.472 40.148 21.2221 40.0578 20.966 39.9887C20.5813 39.8837 20.1853 39.8253 19.7866 39.8148C19.6707 39.8148 19.5548 39.8148 19.4389 39.8148H18.3351C18.2754 39.7005 18.2442 39.5734 18.2444 39.4444C18.2457 39.2302 18.3316 39.0251 18.4833 38.8739C18.635 38.7226 18.8403 38.6374 19.0546 38.6367ZM28.4466 42.2492C28.4466 42.4644 28.3611 42.6708 28.2089 42.8229C28.0568 42.9751 27.8504 43.0606 27.6352 43.0606H24.3352C24.1093 42.4604 23.7691 41.9097 23.3335 41.439H27.6352C27.8501 41.4393 28.0561 41.5247 28.2081 41.6766C28.3602 41.8284 28.4459 42.0343 28.4466 42.2492ZM16.1855 41.1908C15.8184 41.5397 15.5054 41.9414 15.2569 42.3827H14.569C14.9943 41.8509 15.5517 41.4399 16.1855 41.1908ZM13.9427 43.4877H14.8021C14.7225 43.7764 14.6685 44.0716 14.6408 44.3697H13.7336C13.7682 44.0686 13.8392 43.7726 13.9427 43.4877ZM14.0372 46.4109C13.9059 46.1126 13.8128 45.7989 13.76 45.4773H14.6609C14.6973 45.7952 14.7679 46.1082 14.8714 46.4109H14.0372ZM14.7731 47.5172C15.1347 47.5172 15.3451 47.5172 15.3943 47.5172C15.6176 47.8692 15.8843 48.1918 16.1881 48.4773C15.651 48.2657 15.1677 47.9385 14.7731 47.5172ZM19.8055 48.7419C19.1649 48.767 18.5279 48.6339 17.9509 48.3545C17.3738 48.0751 16.8744 47.658 16.4968 47.1399C16.1191 46.6218 15.8747 46.0187 15.7853 45.3839C15.6958 44.749 15.764 44.1019 15.9839 43.4996C16.2037 42.8974 16.5684 42.3585 17.0458 41.9305C17.5232 41.5026 18.0985 41.1987 18.7212 41.0457C19.3438 40.8928 19.9945 40.8954 20.6158 41.0534C21.2372 41.2114 21.8101 41.52 22.2839 41.9518C22.8564 42.4739 23.2606 43.1545 23.4452 43.9071C23.6298 44.6596 23.5865 45.45 23.3206 46.1778C23.0548 46.9055 22.5785 47.5378 21.9524 47.9942C21.3262 48.4506 20.5785 48.7104 19.8043 48.7407L19.8055 48.7419ZM27.6364 48.6638H22.8711C23.4004 48.216 23.8319 47.664 24.1387 47.0422H27.6314C27.8409 47.0505 28.0391 47.1395 28.1844 47.2906C28.3297 47.4418 28.4109 47.6433 28.4109 47.853C28.4109 48.0627 28.3297 48.2642 28.1844 48.4154C28.0391 48.5665 27.8409 48.6556 27.6314 48.6638H27.6364ZM28.4403 45.1497C28.416 45.3459 28.321 45.5265 28.173 45.6576C28.0249 45.7887 27.8341 45.8612 27.6364 45.8616H24.5494C24.6604 45.3284 24.6846 44.7808 24.6212 44.24H27.6352C27.75 44.24 27.8635 44.2644 27.9682 44.3116C28.0729 44.3588 28.1664 44.4276 28.2425 44.5136C28.3186 44.5996 28.3756 44.7008 28.4097 44.8104C28.4438 44.9201 28.4542 45.0357 28.4403 45.1497ZM30.3706 43.9703H29.3059C29.2333 43.8552 29.1488 43.7479 29.0539 43.6503C29.4241 43.2782 29.6319 42.7747 29.6319 42.2498C29.6319 41.7249 29.4241 41.2214 29.0539 40.8493C29.4241 40.4772 29.6319 39.9737 29.6319 39.4488C29.6319 38.9239 29.4241 38.4204 29.0539 38.0483C29.3323 37.769 29.5215 37.4133 29.5976 37.0264C29.6736 36.6394 29.6331 36.2386 29.4812 35.8747C29.3292 35.5107 29.0727 35.2001 28.7441 34.9821C28.4155 34.7641 28.0295 34.6486 27.6352 34.6501H20.9572V16.05C20.9572 15.4485 21.1961 14.8716 21.6214 14.4463C22.0468 14.0209 22.6237 13.782 23.2252 13.782H36.658V18.3961C36.658 18.5525 36.7201 18.7025 36.8307 18.8131C36.9413 18.9237 37.0913 18.9858 37.2477 18.9858H41.5128C41.6388 19.4633 41.5594 19.3058 41.5834 24.8675H34.9671C33.7488 24.8688 32.5807 25.3534 31.7193 26.2148C30.8578 27.0763 30.3732 28.2444 30.3719 29.4627V43.9741L30.3706 43.9703ZM48.9531 45.5478C48.9521 46.4729 48.5842 47.3597 47.9301 48.0138C47.276 48.6679 46.3892 49.0358 45.4642 49.0368H34.9671C34.0422 49.0354 33.1555 48.6674 32.5015 48.0134C31.8475 47.3594 31.4795 46.4728 31.4782 45.5478V29.4665C31.4795 28.5415 31.8475 27.6549 32.5015 27.0009C33.1555 26.3469 34.0422 25.9789 34.9671 25.9775H45.4705C46.3944 25.9802 47.2796 26.3488 47.9323 27.0027C48.5851 27.6566 48.9521 28.5425 48.9531 29.4665V45.5478Z" fill="#262F6A"/>
</g>
</g>
<g id="Group 44681">
<g id="Group 44680">
<path id="Path 2972" d="M45.4237 27.2314H35.0035C34.7597 27.2314 34.5184 27.2795 34.2932 27.3727C34.068 27.466 33.8634 27.6027 33.6911 27.7751C33.5188 27.9474 33.382 28.152 33.2888 28.3772C33.1955 28.6024 33.1475 28.8437 33.1475 29.0874V31.111C33.1475 31.3547 33.1955 31.5961 33.2888 31.8212C33.382 32.0464 33.5188 32.251 33.6911 32.4234C33.8634 32.5957 34.068 32.7324 34.2932 32.8257C34.5184 32.919 34.7597 32.967 35.0035 32.967H37.0094C37.1561 32.967 37.2968 32.9087 37.4005 32.805C37.5042 32.7012 37.5625 32.5605 37.5625 32.4138C37.5625 32.2671 37.5042 32.1264 37.4005 32.0227C37.2968 31.919 37.1561 31.8607 37.0094 31.8607H35.0035C34.9042 31.8607 34.8059 31.8411 34.7142 31.8031C34.6224 31.7651 34.5391 31.7095 34.4689 31.6393C34.3987 31.5691 34.343 31.4857 34.305 31.394C34.267 31.3023 34.2475 31.204 34.2475 31.1047V29.0811C34.2475 28.9818 34.267 28.8835 34.305 28.7918C34.343 28.7001 34.3987 28.6168 34.4689 28.5466C34.5391 28.4764 34.6224 28.4207 34.7142 28.3827C34.8059 28.3447 34.9042 28.3251 35.0035 28.3251H45.4237C45.5229 28.3251 45.6212 28.3447 45.713 28.3827C45.8047 28.4207 45.888 28.4764 45.9582 28.5466C46.0284 28.6168 46.0841 28.7001 46.1221 28.7918C46.1601 28.8835 46.1797 28.9818 46.1797 29.0811V31.1047C46.1797 31.204 46.1601 31.3023 46.1221 31.394C46.0841 31.4857 46.0284 31.5691 45.9582 31.6393C45.888 31.7095 45.8047 31.7651 45.713 31.8031C45.6212 31.8411 45.5229 31.8607 45.4237 31.8607H39.3882C39.2415 31.8607 39.1008 31.919 38.9971 32.0227C38.8934 32.1264 38.8351 32.2671 38.8351 32.4138C38.8351 32.5605 38.8934 32.7012 38.9971 32.805C39.1008 32.9087 39.2415 32.967 39.3882 32.967H45.4237C45.9157 32.9663 46.3874 32.7706 46.7353 32.4226C47.0832 32.0747 47.279 31.603 47.2796 31.111V29.0874C47.279 28.5954 47.0832 28.1237 46.7353 27.7758C46.3874 27.4279 45.9157 27.2321 45.4237 27.2314Z" fill="#262F6A"/>
</g>
</g>
<g id="Group 44683">
<g id="Group 44682">
<path id="Path 2973" d="M36.1944 38.8823H34.3044C33.9974 38.8827 33.7031 39.0047 33.486 39.2218C33.2689 39.4389 33.1468 39.7332 33.1465 40.0402V41.9302C33.1468 42.2372 33.2689 42.5316 33.486 42.7487C33.7031 42.9658 33.9974 43.0878 34.3044 43.0882H36.1944C36.5015 43.0882 36.796 42.9662 37.0132 42.749C37.2304 42.5319 37.3523 42.2373 37.3523 41.9302V40.0402C37.3523 39.7331 37.2304 39.4386 37.0132 39.2215C36.796 39.0043 36.5015 38.8823 36.1944 38.8823ZM36.2461 41.929C36.2461 41.9427 36.2406 41.9558 36.2309 41.9655C36.2212 41.9752 36.2081 41.9806 36.1944 41.9806H34.3044C34.2907 41.9806 34.2776 41.9752 34.2679 41.9655C34.2582 41.9558 34.2528 41.9427 34.2528 41.929V40.039C34.2528 40.0253 34.2582 40.0122 34.2679 40.0025C34.2776 39.9928 34.2907 39.9873 34.3044 39.9873H36.1944C36.2081 39.9873 36.2212 39.9928 36.2309 40.0025C36.2406 40.0122 36.2461 40.0253 36.2461 40.039V41.929Z" fill="#262F6A"/>
</g>
</g>
<g id="Group 44685">
<g id="Group 44684">
<path id="Path 2974" d="M46.1886 33.9434H44.2986C43.9915 33.9434 43.6969 34.0654 43.4798 34.2825C43.2626 34.4997 43.1406 34.7942 43.1406 35.1013V36.9913C43.1406 37.2984 43.2626 37.593 43.4798 37.8101C43.6969 38.0273 43.9915 38.1493 44.2986 38.1493H46.1886C46.4957 38.1493 46.7902 38.0273 47.0074 37.8101C47.2245 37.593 47.3465 37.2984 47.3465 36.9913V35.1013C47.3465 34.7942 47.2245 34.4997 47.0074 34.2825C46.7902 34.0654 46.4957 33.9434 46.1886 33.9434ZM46.2403 36.99C46.2403 37.0037 46.2348 37.0169 46.2251 37.0266C46.2154 37.0363 46.2023 37.0417 46.1886 37.0417H44.2986C44.2849 37.0417 44.2717 37.0363 44.262 37.0266C44.2524 37.0169 44.2469 37.0037 44.2469 36.99C44.2696 35.1215 44.199 35.0497 44.2986 35.0497H46.1886C46.2023 35.0497 46.2154 35.0551 46.2251 35.0648C46.2348 35.0745 46.2403 35.0876 46.2403 35.1013V36.99Z" fill="#262F6A"/>
</g>
</g>
<g id="Group 44687">
<g id="Group 44686">
<path id="Path 2975" d="M36.1944 33.9434H34.3044C33.9974 33.9437 33.7031 34.0658 33.486 34.2829C33.2689 34.5 33.1468 34.7943 33.1465 35.1013V36.9913C33.1468 37.2983 33.2689 37.5926 33.486 37.8097C33.7031 38.0268 33.9974 38.1489 34.3044 38.1493H36.1944C36.5015 38.1493 36.796 38.0273 37.0132 37.8101C37.2304 37.593 37.3523 37.2984 37.3523 36.9913V35.1013C37.3523 34.7942 37.2304 34.4997 37.0132 34.2825C36.796 34.0654 36.5015 33.9434 36.1944 33.9434ZM36.2461 36.99C36.2461 37.0037 36.2406 37.0169 36.2309 37.0266C36.2212 37.0363 36.2081 37.0417 36.1944 37.0417H34.3044C34.2907 37.0417 34.2776 37.0363 34.2679 37.0266C34.2582 37.0169 34.2528 37.0037 34.2528 36.99V35.1C34.2528 35.0863 34.2582 35.0732 34.2679 35.0635C34.2776 35.0538 34.2907 35.0484 34.3044 35.0484H36.1944C36.2081 35.0484 36.2212 35.0538 36.2309 35.0635C36.2406 35.0732 36.2461 35.0863 36.2461 35.1V36.99Z" fill="#262F6A"/>
</g>
</g>
<g id="Group 44689">
<g id="Group 44688">
<path id="Path 2976" d="M37.0601 43.9689C36.9515 43.8465 36.8182 43.7485 36.669 43.6814C36.5198 43.6143 36.3581 43.5796 36.1944 43.5796H34.3044C34.1408 43.5794 33.979 43.6141 33.8298 43.6812C33.6805 43.7483 33.5473 43.8464 33.4388 43.9689C33.3148 44.1365 33.225 44.327 33.1749 44.5294C33.1247 44.7318 33.1151 44.9421 33.1465 45.1483V46.625C33.1468 46.932 33.2689 47.2263 33.486 47.4434C33.7031 47.6605 33.9974 47.7826 34.3044 47.7829H36.1944C36.5015 47.7829 36.7961 47.661 37.0132 47.4438C37.2304 47.2266 37.3524 46.9321 37.3524 46.625V45.1483C37.4144 44.732 37.3093 44.3081 37.0601 43.9689ZM36.1944 46.6767C34.3284 46.654 34.2528 46.7245 34.2528 46.625C34.2528 44.6254 34.2301 44.6846 34.3044 44.6846H36.1944C36.2852 44.6846 36.2297 44.8106 36.2461 45.1483C36.2787 45.6586 36.2614 46.171 36.1944 46.6779V46.6767Z" fill="#262F6A"/>
</g>
</g>
<g id="Group 44691">
<g id="Group 44690">
<path id="Path 2977" d="M45.8949 38.8823H44.5933C44.2089 38.883 43.8404 39.036 43.5686 39.3078C43.2967 39.5797 43.1437 39.9482 43.1431 40.3326V46.1991C43.1437 46.619 43.3108 47.0215 43.6077 47.3183C43.9046 47.6152 44.307 47.7823 44.7269 47.783H45.7638C46.1838 47.7826 46.5865 47.6156 46.8834 47.3187C47.1804 47.0217 47.3474 46.6191 47.3477 46.1991V40.3326C47.347 39.9477 47.1937 39.5788 46.9213 39.3069C46.6489 39.035 46.2798 38.8823 45.8949 38.8823ZM45.7626 46.6779H44.7256C44.5989 46.6776 44.4774 46.627 44.3879 46.5373C44.2984 46.4475 44.2481 46.3259 44.2481 46.1991V40.3326C44.2481 40.241 44.2844 40.1532 44.3492 40.0885C44.4139 40.0237 44.5018 39.9873 44.5933 39.9873H45.8949C45.9865 39.9873 46.0743 40.0237 46.139 40.0885C46.2038 40.1532 46.2402 40.241 46.2402 40.3326V46.1991C46.2403 46.262 46.2281 46.3244 46.204 46.3826C46.18 46.4407 46.1448 46.4936 46.1003 46.5381C46.0558 46.5826 46.0029 46.6178 45.9448 46.6418C45.8866 46.6658 45.8243 46.6781 45.7614 46.6779H45.7626Z" fill="#262F6A"/>
</g>
</g>
<g id="Group 44693">
<g id="Group 44692">
<path id="Path 2978" d="M26.834 28.6613C26.1599 28.4093 25.6723 28.2342 25.6723 27.6105C25.6723 27.041 26.0503 26.7524 26.7962 26.7524C27.5875 26.7524 27.8042 27.1002 28.0789 27.1002C28.2115 27.0854 28.3337 27.0211 28.421 26.9202C28.5084 26.8193 28.5545 26.6892 28.5502 26.5559C28.5502 26.0947 27.7942 25.8667 27.1276 25.8062V25.3904C27.1276 25.2514 27.0724 25.118 26.9741 25.0198C26.8758 24.9215 26.7425 24.8662 26.6035 24.8662C26.4644 24.8662 26.3311 24.9215 26.2328 25.0198C26.1345 25.118 26.0793 25.2514 26.0793 25.3904V25.8717C25.6631 25.9427 25.2878 26.1648 25.0252 26.4954C24.7627 26.8261 24.6315 27.242 24.6568 27.6634C24.6568 28.9499 25.6043 29.3014 26.3653 29.5925C27.1264 29.8835 27.6997 30.0965 27.6997 30.9445C27.6997 31.6475 27.3091 32.0041 26.5392 32.0041C25.4128 32.0041 25.4052 31.2481 24.9718 31.2481C24.8396 31.2657 24.7182 31.3305 24.63 31.4305C24.5418 31.5306 24.4927 31.6591 24.4917 31.7924C24.4917 32.2284 25.1406 32.8004 26.0793 32.9491V33.3511C26.0793 33.4901 26.1345 33.6234 26.2328 33.7217C26.3311 33.82 26.4644 33.8752 26.6035 33.8752C26.7425 33.8752 26.8758 33.82 26.9741 33.7217C27.0724 33.6234 27.1276 33.4901 27.1276 33.3511V32.939C27.6028 32.8642 28.0316 32.611 28.3265 32.231C28.6215 31.8511 28.7605 31.373 28.7152 30.8941C28.7152 29.3518 27.6719 28.9688 26.834 28.6613Z" fill="#262F6A"/>
</g>
</g>
<g id="Group 44695">
<g id="Group 44694">
<path id="Path 2979" d="M41.964 43.9034C41.7486 43.6953 41.4608 43.5792 41.1613 43.5796H39.2713C39.1077 43.5796 38.946 43.6143 38.7968 43.6814C38.6475 43.7485 38.5142 43.8465 38.4057 43.9689C38.1562 44.3079 38.0515 44.7321 38.1147 45.1483V46.625C38.1147 46.9321 38.2367 47.2266 38.4538 47.4438C38.671 47.661 38.9655 47.7829 39.2726 47.7829H41.1626C41.4695 47.7826 41.7637 47.6605 41.9806 47.4433C42.1974 47.2262 42.3193 46.9319 42.3193 46.625V44.735C42.3192 44.5796 42.2876 44.4258 42.2265 44.2829C42.1655 44.14 42.0762 44.0109 41.964 43.9034ZM41.1613 46.6754C39.2953 46.6527 39.2197 46.7233 39.2197 46.6238V44.7338C39.22 44.7203 39.2256 44.7075 39.2352 44.698C39.2449 44.6886 39.2579 44.6834 39.2713 44.6834H41.1613C41.168 44.6834 41.1745 44.6847 41.1806 44.6872C41.1867 44.6897 41.1923 44.6934 41.197 44.6981C41.2017 44.7028 41.2054 44.7084 41.2079 44.7145C41.2104 44.7206 41.2118 44.7272 41.2118 44.7338C41.1916 46.6074 41.2609 46.6779 41.1626 46.6779L41.1613 46.6754Z" fill="#262F6A"/>
</g>
</g>
<g id="Group 44697">
<g id="Group 44696">
<path id="Path 2980" d="M41.1612 33.9434H39.2712C38.9641 33.9434 38.6696 34.0654 38.4525 34.2825C38.2353 34.4997 38.1133 34.7942 38.1133 35.1013V36.9913C38.1133 37.2984 38.2353 37.593 38.4525 37.8101C38.6696 38.0273 38.9641 38.1493 39.2712 38.1493H41.1612C41.3053 38.1498 41.4481 38.1228 41.5821 38.0699C41.7987 37.9849 41.9847 37.8367 42.1159 37.6446C42.2472 37.4524 42.3175 37.2253 42.3179 36.9926V35.1026C42.3179 34.7956 42.1961 34.5011 41.9793 34.2838C41.7625 34.0665 41.4682 33.944 41.1612 33.9434ZM41.1612 37.0417H39.2712C39.2575 37.0417 39.2444 37.0363 39.2347 37.0266C39.225 37.0169 39.2196 37.0037 39.2196 36.99V35.1C39.2196 35.0005 39.2876 35.0711 41.1612 35.0484C41.1747 35.0487 41.1875 35.0543 41.197 35.064C41.2064 35.0736 41.2116 35.0866 41.2116 35.1V36.99C41.2116 37.0035 41.2064 37.0165 41.197 37.0261C41.1875 37.0358 41.1747 37.0414 41.1612 37.0417Z" fill="#262F6A"/>
</g>
</g>
<g id="Group 44699">
<g id="Group 44698">
<path id="Path 2981" d="M41.5821 38.9617C41.4481 38.9087 41.3053 38.8818 41.1612 38.8823H39.2712C38.9641 38.8823 38.6696 39.0043 38.4525 39.2215C38.2353 39.4386 38.1133 39.7331 38.1133 40.0402V41.9302C38.1133 42.2373 38.2353 42.5319 38.4525 42.749C38.6696 42.9662 38.9641 43.0882 39.2712 43.0882H41.1612C41.4681 43.0879 41.7623 42.9657 41.9792 42.7486C42.1961 42.5315 42.3179 42.2371 42.3179 41.9302V40.0402C42.3178 39.8073 42.2476 39.5799 42.1163 39.3875C41.9851 39.1951 41.7989 39.0468 41.5821 38.9617ZM41.2116 41.9277C41.2116 41.9412 41.2064 41.9542 41.197 41.9638C41.1875 41.9735 41.1747 41.9791 41.1612 41.9794H39.2712C39.2575 41.9794 39.2444 41.974 39.2347 41.9643C39.225 41.9546 39.2196 41.9414 39.2196 41.9277V40.0377C39.2196 40.024 39.225 40.0109 39.2347 40.0012C39.2444 39.9915 39.2575 39.9861 39.2712 39.9861H41.1612C41.1747 39.9864 41.1875 39.992 41.197 40.0016C41.2064 40.0113 41.2116 40.0243 41.2116 40.0377V41.9277Z" fill="#262F6A"/>
</g>
</g>
<g id="Group 44701">
<g id="Group 44700">
<path id="Path 2982" d="M37.9699 20.1562H36.5839C36.4372 20.1562 36.2965 20.2145 36.1928 20.3183C36.089 20.422 36.0308 20.5627 36.0308 20.7094C36.0308 20.8561 36.089 20.9968 36.1928 21.1005C36.2965 21.2043 36.4372 21.2625 36.5839 21.2625H37.9699C38.1166 21.2625 38.2573 21.2043 38.361 21.1005C38.4647 20.9968 38.523 20.8561 38.523 20.7094C38.523 20.5627 38.4647 20.422 38.361 20.3183C38.2573 20.2145 38.1166 20.1562 37.9699 20.1562Z" fill="#262F6A"/>
</g>
</g>
<g id="Group 44703">
<g id="Group 44702">
<path id="Path 2983" d="M34.3697 20.1562H24.5644C24.4177 20.1562 24.277 20.2145 24.1732 20.3183C24.0695 20.422 24.0112 20.5627 24.0112 20.7094C24.0112 20.8561 24.0695 20.9968 24.1732 21.1005C24.277 21.2043 24.4177 21.2625 24.5644 21.2625H34.3697C34.5164 21.2625 34.6571 21.2043 34.7608 21.1005C34.8646 20.9968 34.9228 20.8561 34.9228 20.7094C34.9228 20.5627 34.8646 20.422 34.7608 20.3183C34.6571 20.2145 34.5164 20.1562 34.3697 20.1562Z" fill="#262F6A"/>
</g>
</g>
<g id="Group 44705">
<g id="Group 44704">
<path id="Path 2984" d="M26.3187 22.9004H24.5609C24.4142 22.9004 24.2736 22.9587 24.1698 23.0624C24.0661 23.1661 24.0078 23.3068 24.0078 23.4535C24.0078 23.6002 24.0661 23.7409 24.1698 23.8447C24.2736 23.9484 24.4142 24.0067 24.5609 24.0067H26.3187C26.4654 24.0067 26.6061 23.9484 26.7098 23.8447C26.8135 23.7409 26.8718 23.6002 26.8718 23.4535C26.8718 23.3068 26.8135 23.1661 26.7098 23.0624C26.6061 22.9587 26.4654 22.9004 26.3187 22.9004Z" fill="#262F6A"/>
</g>
</g>
<g id="Group 44707">
<g id="Group 44706">
<path id="Path 2985" d="M37.9707 22.9004H28.5346C28.3879 22.9004 28.2472 22.9587 28.1435 23.0624C28.0397 23.1661 27.9814 23.3068 27.9814 23.4535C27.9814 23.6002 28.0397 23.7409 28.1435 23.8447C28.2472 23.9484 28.3879 24.0067 28.5346 24.0067H37.9707C38.1174 24.0067 38.2581 23.9484 38.3619 23.8447C38.4656 23.7409 38.5239 23.6002 38.5239 23.4535C38.5239 23.3068 38.4656 23.1661 38.3619 23.0624C38.2581 22.9587 38.1174 22.9004 37.9707 22.9004Z" fill="#262F6A"/>
</g>
</g>
<g id="Group 44709">
<g id="Group 44708">
<path id="Path 2986" d="M19.324 43.7749C19.324 43.6363 19.3757 43.596 19.4236 43.5695C19.553 43.5195 19.6918 43.4984 19.8303 43.5078C19.9687 43.5171 20.1034 43.5567 20.2249 43.6237C20.3153 43.6785 20.418 43.7097 20.5236 43.7144C21.0691 43.7144 21.5001 42.7064 20.1972 42.4771V42.4418C20.1904 42.2979 20.1284 42.1621 20.0241 42.0626C19.9198 41.9632 19.7812 41.9077 19.6371 41.9077C19.493 41.9077 19.3545 41.9632 19.2502 42.0626C19.1459 42.1621 19.0839 42.2979 19.0771 42.4418V42.5477C18.8167 42.6358 18.5924 42.8066 18.4381 43.0341C18.2839 43.2616 18.2083 43.5332 18.2228 43.8077C18.2228 44.7502 18.9082 45.0085 19.4084 45.1937C19.886 45.3726 20.0511 45.4457 20.0511 45.7758C20.0511 45.9787 19.9969 46.1664 19.6 46.1664C19.0216 46.1664 19.096 45.709 18.6588 45.709C18.5141 45.7198 18.3788 45.7846 18.2798 45.8906C18.1808 45.9966 18.1254 46.136 18.1245 46.2811C18.1245 46.6591 18.5227 47.0282 19.0783 47.1757V47.2172C19.0852 47.3612 19.1472 47.497 19.2514 47.5964C19.3557 47.6959 19.4943 47.7514 19.6384 47.7514C19.7825 47.7514 19.9211 47.6959 20.0254 47.5964C20.1296 47.497 20.1916 47.3612 20.1985 47.2172V47.1605C20.4932 47.0647 20.7473 46.8729 20.9202 46.6157C21.0931 46.3585 21.1748 46.0509 21.1523 45.7418C21.151 44.066 19.324 44.318 19.324 43.7749Z" fill="#262F6A"/>
</g>
</g>
</g>
</g>
</g>
</svg>
