<svg width="63" height="63" viewBox="0 0 63 63" fill="none" xmlns="http://www.w3.org/2000/svg">
<g id="Group 44325" clip-path="url(#clip0_130_872)">
<g id="Group 44325_2">
<path id="Rectangle 13" opacity="0.2" d="M52.921 0H10.081C4.51395 0 0.000976562 4.51297 0.000976562 10.08V52.92C0.000976562 58.487 4.51395 63 10.081 63H52.921C58.488 63 63.001 58.487 63.001 52.92V10.08C63.001 4.51297 58.488 0 52.921 0Z" fill="#262F6A"/>
<path id="marketing (1)" d="M49.0391 40.8859C49.0382 40.1979 48.7979 39.5316 48.3595 39.0012C47.9211 38.4709 47.3119 38.1095 46.6363 37.9791V33.5779C46.6365 33.2555 46.5521 32.9387 46.3917 32.659C46.2313 32.3793 46.0005 32.1465 45.7222 31.9837C45.4438 31.821 45.1277 31.734 44.8053 31.7314C44.4829 31.7288 44.1654 31.8107 43.8845 31.9689C43.4536 32.2108 43.0214 32.4616 42.5627 32.7249C41.2738 33.4696 39.8928 34.2659 38.4602 34.9375V26.5396L38.8243 26.8042C39.3367 27.1777 39.9543 27.3793 40.5883 27.38C40.75 27.3797 40.9113 27.3667 41.0709 27.3409C41.6611 27.2463 42.21 26.979 42.6483 26.5726C43.0866 26.1662 43.3947 25.639 43.5336 25.0576C43.6724 24.4763 43.6359 23.8668 43.4286 23.3062C43.2212 22.7455 42.8524 22.2589 42.3687 21.9078L28.6675 11.9538C28.1518 11.5618 27.5233 11.3468 26.8755 11.3409C26.2278 11.335 25.5954 11.5385 25.0727 11.9211L11.3311 21.9078C10.7082 22.3878 10.2967 23.0916 10.184 23.8699C10.0714 24.6483 10.2663 25.4399 10.7276 26.0768C11.1888 26.7138 11.8801 27.146 12.6547 27.2818C13.4293 27.4176 14.2264 27.2463 14.8768 26.8042L15.2409 26.5396V38.1757C15.2429 39.2444 15.6683 40.2688 16.4241 41.0245C17.1798 41.7802 18.2042 42.2057 19.2729 42.2077H26.2722C26.5652 43.1273 27.1427 43.93 27.9216 44.5001C28.7004 45.0701 29.6402 45.3779 30.6053 45.3791H31.1333V49.6543C31.1343 50.3965 31.4296 51.108 31.9544 51.6329C32.4792 52.1577 33.1908 52.453 33.933 52.454H34.6789C34.8564 52.454 35.0266 52.3835 35.152 52.258C35.2775 52.1326 35.348 51.9624 35.348 51.7849V45.5253C38.3745 46.3482 41.234 47.6935 43.7976 49.5006C44.0768 49.6773 44.3985 49.7759 44.7288 49.786C45.0592 49.7962 45.3863 49.7174 45.6758 49.5581C45.9654 49.3988 46.207 49.1646 46.3752 48.8801C46.5435 48.5956 46.6324 48.2712 46.6325 47.9407V43.7928C47.3081 43.6623 47.9173 43.301 48.3557 42.7707C48.7941 42.2403 49.0344 41.574 49.0354 40.8859H49.0391ZM14.093 25.7193C13.9144 25.8556 13.7102 25.9548 13.4926 26.011C13.275 26.0673 13.0483 26.0794 12.8259 26.0466C12.6036 26.0139 12.39 25.937 12.1978 25.8205C12.0056 25.7039 11.8387 25.5501 11.7069 25.3681C11.5751 25.1861 11.481 24.9795 11.4302 24.7606C11.3794 24.5416 11.373 24.3147 11.4112 24.0933C11.4495 23.8718 11.5317 23.6602 11.6529 23.471C11.7742 23.2817 11.9321 23.1187 12.1174 22.9914L25.8627 13.0047C26.1559 12.7944 26.5084 12.6831 26.8692 12.687C27.2299 12.6908 27.58 12.8096 27.8686 13.0261L27.88 13.0349L41.5888 22.9914C41.9489 23.2541 42.1902 23.6488 42.2598 24.089C42.3295 24.5293 42.2219 24.9792 41.9605 25.3402C41.6992 25.7013 41.3054 25.944 40.8654 26.0153C40.4254 26.0866 39.9751 25.9806 39.6131 25.7206L27.2474 16.7368C27.1332 16.6538 26.9956 16.6091 26.8543 16.6091C26.7131 16.6091 26.5755 16.6538 26.4612 16.7368L14.093 25.7193ZM16.5815 38.1744V25.5669L26.8468 18.1051L37.117 25.5669V35.5209C36.3046 35.8477 35.4663 36.1061 34.6109 36.2932H30.783V30.2503C30.7823 29.653 30.5448 29.0803 30.1224 28.658C29.7001 28.2356 29.1274 27.9981 28.5301 27.9974H25.1722C24.5749 27.9981 24.0023 28.2356 23.5799 28.658C23.1576 29.0803 22.92 29.653 22.9193 30.2503V40.8721H19.2779C18.563 40.8714 17.8776 40.5871 17.372 40.0816C16.8665 39.5761 16.5822 38.8906 16.5815 38.1757V38.1744ZM26.0643 40.8343C26.0643 40.8469 26.0643 40.8582 26.0643 40.8708H24.2587V30.249C24.2591 30.0068 24.3554 29.7747 24.5267 29.6034C24.6979 29.4322 24.9301 29.3359 25.1722 29.3355H28.5314C28.7736 29.3359 29.0057 29.4322 29.177 29.6034C29.3482 29.7747 29.4446 30.0068 29.4449 30.249V36.447C28.4772 36.7049 27.6216 37.2747 27.0105 38.0681C26.3994 38.8614 26.0668 39.8328 26.0643 40.8343ZM27.4024 40.8343C27.4034 39.9841 27.7416 39.1691 28.3428 38.5679C28.9439 37.9668 29.759 37.6286 30.6091 37.6276H34.0111V44.0422H30.6091C29.759 44.0412 28.9439 43.7031 28.3428 43.1019C27.7416 42.5008 27.4034 41.6844 27.4024 40.8343ZM33.9368 51.1159C33.5492 51.1155 33.1777 50.9615 32.9036 50.6874C32.6296 50.4134 32.4755 50.0418 32.4752 49.6543V45.3816H34.0124V51.1171L33.9368 51.1159ZM45.2969 47.9394C45.2982 48.0308 45.2745 48.1209 45.2285 48.1999C45.1824 48.2789 45.1158 48.3438 45.0356 48.3879C44.9555 48.4319 44.8649 48.4533 44.7735 48.4497C44.6822 48.4462 44.5935 48.4179 44.517 48.3678C41.7489 46.4084 38.6412 44.9797 35.3518 44.1544V37.494C38.1315 36.6625 40.782 35.4479 43.2268 33.8854C43.6816 33.622 44.1088 33.3738 44.5359 33.1357C44.613 33.0912 44.7004 33.0679 44.7894 33.0681C44.8783 33.0684 44.9656 33.0922 45.0424 33.1371C45.1192 33.182 45.1828 33.2465 45.2266 33.3239C45.2704 33.4013 45.2929 33.489 45.2919 33.5779L45.2969 47.9394ZM46.6351 42.4055V39.3664C46.9469 39.4803 47.2161 39.6873 47.4064 39.9593C47.5966 40.2313 47.6987 40.5552 47.6987 40.8872C47.6987 41.2192 47.5966 41.5431 47.4064 41.8151C47.2161 42.0871 46.9469 42.2941 46.6351 42.408V42.4055ZM52.9199 40.8847C52.9199 41.0621 52.8495 41.2323 52.724 41.3578C52.5985 41.4833 52.4283 41.5537 52.2509 41.5537H50.6356C50.5477 41.5537 50.4607 41.5364 50.3795 41.5028C50.2984 41.4692 50.2246 41.4199 50.1625 41.3578C50.1003 41.2957 50.0511 41.2219 50.0174 41.1407C49.9838 41.0595 49.9665 40.9725 49.9665 40.8847C49.9665 40.7968 49.9838 40.7098 50.0174 40.6286C50.0511 40.5475 50.1003 40.4737 50.1625 40.4116C50.2246 40.3495 50.2984 40.3002 50.3795 40.2666C50.4607 40.2329 50.5477 40.2156 50.6356 40.2156H52.2522C52.3401 40.2156 52.4272 40.233 52.5085 40.2667C52.5897 40.3004 52.6636 40.3498 52.7257 40.412C52.7878 40.4743 52.8371 40.5482 52.8706 40.6295C52.9042 40.7108 52.9214 40.798 52.9212 40.8859L52.9199 40.8847ZM50.7931 44.8184C50.9186 44.9439 50.989 45.1141 50.989 45.2915C50.989 45.469 50.9186 45.6392 50.7931 45.7647C50.6676 45.8901 50.4974 45.9606 50.3199 45.9606C50.1425 45.9606 49.9723 45.8901 49.8468 45.7647L48.704 44.6218C48.6419 44.5597 48.5926 44.486 48.5589 44.4048C48.5253 44.3236 48.508 44.2366 48.508 44.1487C48.508 44.0608 48.5253 43.9738 48.5589 43.8927C48.5926 43.8115 48.6419 43.7377 48.704 43.6756C48.7661 43.6134 48.8399 43.5642 48.9211 43.5305C49.0022 43.4969 49.0892 43.4796 49.1771 43.4796C49.265 43.4796 49.352 43.4969 49.4332 43.5305C49.5144 43.5642 49.5881 43.6134 49.6502 43.6756L50.7931 44.8184ZM48.8829 38.0144C48.8208 37.9523 48.7715 37.8785 48.7379 37.7973C48.7042 37.7162 48.6869 37.6291 48.6869 37.5413C48.6869 37.4534 48.7042 37.3664 48.7379 37.2852C48.7715 37.204 48.8208 37.1303 48.8829 37.0681L50.0257 35.9253C50.1512 35.7998 50.3214 35.7293 50.4989 35.7293C50.6763 35.7293 50.8465 35.7998 50.972 35.9253C51.0975 36.0508 51.168 36.221 51.168 36.3985C51.168 36.5759 51.0975 36.7461 50.972 36.8716L49.8292 38.0144C49.767 38.0765 49.6933 38.1258 49.6121 38.1595C49.5309 38.1931 49.4439 38.2104 49.356 38.2104C49.2682 38.2104 49.1812 38.1931 49.1 38.1595C49.0188 38.1258 48.945 38.0765 48.8829 38.0144Z" fill="#262F6A"/>
</g>
</g>
<defs>
<clipPath id="clip0_130_872">
<rect width="63" height="63" fill="white" transform="translate(0.000976562)"/>
</clipPath>
</defs>
</svg>
