<svg width="63" height="63" viewBox="0 0 63 63" fill="none" xmlns="http://www.w3.org/2000/svg">
<g id="Group 44326" clip-path="url(#clip0_130_888)">
<g id="Group 44205">
<path id="Rectangle 13" opacity="0.2" d="M52.921 0H10.081C4.51395 0 0.000976562 4.51297 0.000976562 10.08V52.92C0.000976562 58.487 4.51395 63 10.081 63H52.921C58.488 63 63.001 58.487 63.001 52.92V10.08C63.001 4.51297 58.488 0 52.921 0Z" fill="#262F6A"/>
<g id="location (3)">
<path id="_x36_" d="M27.3494 47.4617C27.35 47.5393 27.3353 47.6164 27.3062 47.6883C27.277 47.7603 27.2339 47.8258 27.1793 47.881C27.1248 47.9363 27.0598 47.9802 26.9883 48.0103C26.9167 48.0404 26.8399 48.0561 26.7622 48.0564C26.6047 48.0557 26.4538 47.9929 26.3424 47.8815C26.231 47.7701 26.1681 47.6192 26.1675 47.4617V40.0113C26.1685 39.7699 26.2196 39.5314 26.3177 39.3108C26.4157 39.0902 26.5585 38.8924 26.737 38.7299C27.0949 38.399 27.565 38.2162 28.0524 38.2183H34.9824C35.4702 38.2143 35.941 38.3974 36.2979 38.7299C36.4766 38.8923 36.6195 39.0901 36.7178 39.3107C36.8161 39.5313 36.8674 39.7698 36.8687 40.0113V47.4617C36.8693 47.5393 36.8546 47.6164 36.8255 47.6883C36.7963 47.7603 36.7532 47.8258 36.6986 47.881C36.6441 47.9363 36.5791 47.9802 36.5076 48.0103C36.436 48.0404 36.3592 48.0561 36.2815 48.0564C36.124 48.0557 35.9731 47.9929 35.8617 47.8815C35.7503 47.7701 35.6874 47.6192 35.6868 47.4617V40.0113C35.6866 39.9327 35.6702 39.8549 35.6385 39.7829C35.6068 39.711 35.5606 39.6463 35.5028 39.593C35.3594 39.4671 35.1746 39.3984 34.9837 39.4002H32.1084V47.4642C32.109 47.5417 32.0944 47.6187 32.0653 47.6905C32.0362 47.7624 31.9932 47.8279 31.9388 47.8831C31.8844 47.9383 31.8196 47.9823 31.7481 48.0125C31.6767 48.0426 31.6 48.0584 31.5225 48.0589C31.365 48.0583 31.2141 47.9954 31.1027 47.884C30.9913 47.7726 30.9284 47.6217 30.9278 47.4642V39.4002H28.0537C27.8654 39.3998 27.6834 39.4684 27.5421 39.593C27.4831 39.6458 27.4356 39.7102 27.4024 39.7822C27.3693 39.8541 27.3512 39.9321 27.3494 40.0113V47.4617Z" fill="#262F6A"/>
<path id="_x35_" d="M25.681 30.2738H29.5517C29.629 30.2733 29.7055 30.2882 29.777 30.3175C29.8485 30.3468 29.9134 30.3901 29.968 30.4447C30.0226 30.4993 30.0659 30.5642 30.0952 30.6357C30.1245 30.7072 30.1394 30.7837 30.1389 30.861V34.4646C30.1394 34.5418 30.1245 34.6183 30.0952 34.6897C30.0658 34.7611 30.0226 34.8259 29.968 34.8805C29.9133 34.935 29.8484 34.9781 29.7769 35.0073C29.7055 35.0365 29.6289 35.0512 29.5517 35.0505H25.681C25.6036 35.0515 25.5268 35.0371 25.455 35.008C25.3833 34.979 25.318 34.9359 25.2631 34.8814C25.2082 34.8268 25.1647 34.7618 25.1352 34.6903C25.1057 34.6187 25.0908 34.542 25.0913 34.4646V30.861C25.0908 30.7837 25.1057 30.7072 25.135 30.6357C25.1643 30.5642 25.2076 30.4993 25.2622 30.4447C25.3168 30.3901 25.3817 30.3468 25.4532 30.3175C25.5247 30.2882 25.6012 30.2733 25.6785 30.2738H25.681ZM25.681 23.1082H29.5517C29.629 23.1077 29.7055 23.1226 29.777 23.1519C29.8485 23.1812 29.9134 23.2244 29.968 23.2791C30.0226 23.3337 30.0659 23.3986 30.0952 23.4701C30.1245 23.5416 30.1394 23.6181 30.1389 23.6954V27.299C30.1394 27.3762 30.1245 27.4528 30.0952 27.5243C30.0659 27.5957 30.0226 27.6607 29.968 27.7153C29.9134 27.7699 29.8485 27.8131 29.777 27.8425C29.7055 27.8718 29.629 27.8866 29.5517 27.8861H25.681C25.6038 27.8866 25.5272 27.8718 25.4557 27.8425C25.3842 27.8131 25.3193 27.7699 25.2647 27.7153C25.2101 27.6607 25.1668 27.5957 25.1375 27.5243C25.1082 27.4528 25.0933 27.3762 25.0938 27.299V23.6954C25.0933 23.6181 25.1082 23.5416 25.1375 23.4701C25.1668 23.3986 25.2101 23.3337 25.2647 23.2791C25.3193 23.2244 25.3842 23.1812 25.4557 23.1519C25.5272 23.1226 25.6038 23.1077 25.681 23.1082ZM28.957 24.2901H26.2757V26.703H28.957V24.2901ZM35.4233 26.703C35.5009 26.7035 35.5776 26.7193 35.649 26.7494C35.7204 26.7796 35.7852 26.8236 35.8396 26.8788C35.8941 26.9341 35.937 26.9995 35.9662 27.0714C35.9953 27.1433 36.0099 27.2202 36.0092 27.2977C36.0097 27.3749 35.9949 27.4513 35.9657 27.5227C35.9364 27.5941 35.8933 27.659 35.8388 27.7136C35.7843 27.7682 35.7195 27.8114 35.6482 27.8408C35.5769 27.8702 35.5005 27.8852 35.4233 27.8849H33.4905C33.4129 27.8854 33.3359 27.8706 33.2641 27.8413C33.1922 27.8121 33.1267 27.769 33.0715 27.7145C33.0163 27.6599 32.9723 27.5951 32.9422 27.5236C32.912 27.4521 32.8963 27.3753 32.8958 27.2977V23.6941C32.8961 23.6165 32.9118 23.5396 32.9419 23.4681C32.9719 23.3965 33.0159 23.3315 33.0711 23.277C33.1264 23.2224 33.1919 23.1793 33.2639 23.1501C33.3358 23.121 33.4128 23.1063 33.4905 23.107C33.5677 23.1065 33.6443 23.1213 33.7158 23.1506C33.7872 23.18 33.8522 23.2232 33.9068 23.2778C33.9614 23.3324 34.0046 23.3974 34.034 23.4688C34.0633 23.5403 34.0781 23.6169 34.0776 23.6941V26.703H35.4233ZM33.488 30.2726H37.3511C37.4288 30.2719 37.5058 30.2866 37.5777 30.3158C37.6497 30.3449 37.7152 30.3881 37.7705 30.4426C37.8257 30.4972 37.8697 30.5621 37.8998 30.6337C37.9298 30.7053 37.9455 30.7821 37.9458 30.8597V34.4646C37.9453 34.5421 37.9296 34.6188 37.8994 34.6903C37.8692 34.7617 37.8253 34.8265 37.77 34.8809C37.7148 34.9353 37.6493 34.9783 37.5775 35.0074C37.5056 35.0365 37.4287 35.0512 37.3511 35.0505H33.4905C33.4129 35.0512 33.336 35.0365 33.2641 35.0074C33.1923 34.9783 33.1268 34.9353 33.0716 34.8809C33.0163 34.8265 32.9724 34.7617 32.9422 34.6903C32.912 34.6188 32.8963 34.5421 32.8958 34.4646V30.861C32.8963 30.7834 32.912 30.7066 32.9422 30.6351C32.9723 30.5636 33.0163 30.4988 33.0715 30.4442C33.1267 30.3897 33.1922 30.3466 33.2641 30.3174C33.3359 30.2881 33.4129 30.2733 33.4905 30.2738L33.488 30.2726ZM36.764 31.4545H34.0776V33.8674H36.7677L36.764 31.4545ZM28.952 31.4545H26.2757V33.8674H28.957L28.952 31.4545Z" fill="#262F6A"/>
<path id="_x34_" d="M41.4777 30.7514C41.3986 30.8856 41.2696 30.9829 41.119 31.0221C40.9683 31.0613 40.8082 31.0392 40.6738 30.9606C40.5853 30.9057 40.5107 30.8311 40.4558 30.7426L35.3768 22.1368C34.8625 21.2208 34.5809 20.1926 34.5569 19.1424C34.5328 18.0922 34.767 17.0521 35.2389 16.1136C35.7107 15.175 36.4058 14.3667 37.2631 13.7596C38.1204 13.1525 39.1137 12.7651 40.1556 12.6316C41.1976 12.4981 42.2564 12.6225 43.2391 12.9938C44.2218 13.3652 45.0982 13.9721 45.7915 14.7614C46.4848 15.5506 46.9736 16.498 47.2151 17.5204C47.4567 18.5427 47.4435 19.6088 47.1767 20.6248C47.0421 21.1529 46.8392 21.6612 46.5731 22.1368L41.4777 30.7514ZM40.9737 29.2936L45.5513 21.5459C45.7648 21.1635 45.9283 20.7553 46.0376 20.3312C46.2257 19.6119 46.2583 18.8608 46.1331 18.1279C46.008 17.395 45.728 16.6973 45.312 16.0811C44.8959 15.465 44.3532 14.9446 43.7201 14.5547C43.0871 14.1649 42.3782 13.9145 41.6407 13.8202C40.9032 13.7259 40.1541 13.79 39.4433 14.008C38.7325 14.2261 38.0764 14.5932 37.5187 15.0849C36.961 15.5766 36.5145 16.1815 36.2091 16.8593C35.9036 17.5371 35.7462 18.2723 35.7472 19.0158C35.7477 19.459 35.801 19.9006 35.906 20.3312C36.0176 20.748 36.1778 21.1502 36.3835 21.5295L40.9737 29.2936Z" fill="#262F6A"/>
<path id="_x33_" d="M40.9788 15.5874C41.6565 15.5864 42.3194 15.7865 42.8833 16.1625C43.4473 16.5384 43.887 17.0732 44.1468 17.6992C44.4067 18.3252 44.4749 19.0142 44.3429 19.679C44.211 20.3438 43.8847 20.9544 43.4054 21.4337C42.9262 21.9129 42.3155 22.2392 41.6507 22.3712C40.9859 22.5032 40.2969 22.4349 39.6709 22.1751C39.0449 21.9153 38.5101 21.4755 38.1342 20.9116C37.7583 20.3476 37.5581 19.6848 37.5591 19.007C37.5565 18.5588 37.6433 18.1145 37.8145 17.7002C37.9856 17.2859 38.2376 16.9099 38.5558 16.5941C38.8733 16.2748 39.2508 16.0214 39.6667 15.8487C40.0825 15.6759 40.5285 15.5871 40.9788 15.5874ZM42.5538 17.4232C42.1878 17.0616 41.7079 16.8378 41.1956 16.7901C40.6833 16.7423 40.1702 16.8734 39.7437 17.1612C39.3172 17.4489 39.0035 17.8755 38.8559 18.3685C38.7084 18.8614 38.7361 19.3902 38.9344 19.8649C39.1327 20.3397 39.4893 20.7312 39.9436 20.9727C40.3979 21.2143 40.9219 21.291 41.4263 21.1899C41.9308 21.0888 42.3847 20.8161 42.7109 20.4181C43.037 20.0202 43.2152 19.5216 43.2153 19.007C43.2142 18.7129 43.155 18.4219 43.041 18.1507C42.9271 17.8796 42.7606 17.6336 42.5513 17.427L42.5538 17.4232Z" fill="#262F6A"/>
<path id="_x32_" d="M43.7079 41.386C43.6303 41.3855 43.5536 41.3698 43.4822 41.3396C43.4108 41.3094 43.346 41.2655 43.2916 41.2102C43.2371 41.155 43.1942 41.0895 43.1651 41.0177C43.136 40.9458 43.1213 40.8689 43.122 40.7913C43.1215 40.7142 43.1363 40.6377 43.1655 40.5663C43.1948 40.4949 43.2379 40.4301 43.2924 40.3755C43.3469 40.3209 43.4117 40.2776 43.483 40.2482C43.5543 40.2188 43.6307 40.2038 43.7079 40.2042H45.8499C46.2075 40.2013 46.5579 40.305 46.8563 40.502C47.1548 40.699 47.3878 40.9805 47.5257 41.3104L50.2977 48.0653C50.4127 48.3344 50.4561 48.6287 50.4237 48.9196C50.3718 49.3594 50.159 49.7645 49.8264 50.0569C49.4938 50.3493 49.0647 50.5083 48.6219 50.5034H14.4179C13.9745 50.5074 13.5452 50.3482 13.2115 50.0562C12.8779 49.7641 12.6633 49.3596 12.6086 48.9196C12.5844 48.6289 12.6276 48.3366 12.7346 48.0653L15.5166 41.3142C15.6545 40.9842 15.8875 40.7028 16.186 40.5058C16.4845 40.3088 16.8348 40.2051 17.1924 40.2079H19.3206C19.3978 40.2074 19.4744 40.2223 19.5459 40.2516C19.6173 40.2809 19.6823 40.3242 19.7369 40.3788C19.7915 40.4334 19.8347 40.4983 19.8641 40.5698C19.8934 40.6413 19.9082 40.7179 19.9077 40.7951C19.9084 40.8728 19.8937 40.9498 19.8645 41.0217C19.8354 41.0937 19.7923 41.1592 19.7377 41.2144C19.6832 41.2697 19.6182 41.3136 19.5466 41.3437C19.4751 41.3738 19.3982 41.3895 19.3206 41.3898H17.1924C17.0674 41.3836 16.9435 41.4168 16.8382 41.4845C16.7329 41.5523 16.6514 41.6514 16.6053 41.7678L13.8333 48.5227C13.7924 48.609 13.775 48.7047 13.7829 48.7999C13.7986 48.8965 13.8362 48.9882 13.8928 49.0682C13.9493 49.1481 14.0233 49.214 14.1092 49.261C14.2064 49.3057 14.3122 49.3285 14.4192 49.3278H48.6219C48.7261 49.3294 48.8292 49.3065 48.923 49.261C49.011 49.2168 49.0868 49.1516 49.1438 49.0712C49.2007 48.9908 49.2369 48.8976 49.2494 48.7999C49.2604 48.7054 49.2461 48.6097 49.2078 48.5227L46.4358 41.7678C46.3896 41.6514 46.3082 41.5523 46.2029 41.4845C46.0976 41.4168 45.9737 41.3836 45.8486 41.3898L43.7079 41.386Z" fill="#262F6A"/>
<path id="_x31_" d="M40.3778 33.2904C40.3785 33.1329 40.4413 32.982 40.5527 32.8706C40.6641 32.7592 40.815 32.6964 40.9725 32.6957C41.0502 32.696 41.127 32.7117 41.1986 32.7418C41.2702 32.7719 41.3351 32.8158 41.3897 32.8711C41.4442 32.9263 41.4873 32.9918 41.5165 33.0638C41.5457 33.1358 41.5604 33.2128 41.5597 33.2904V47.4616C41.5604 47.5393 41.5457 47.6163 41.5165 47.6883C41.4873 47.7602 41.4442 47.8257 41.3897 47.881C41.3351 47.9362 41.2702 47.9802 41.1986 48.0103C41.127 48.0404 41.0502 48.056 40.9725 48.0564H22.0725C21.9949 48.056 21.9181 48.0404 21.8465 48.0103C21.7749 47.9802 21.71 47.9362 21.6554 47.881C21.6009 47.8257 21.5577 47.7602 21.5286 47.6883C21.4994 47.6163 21.4847 47.5393 21.4854 47.4616V21.5611C21.4862 21.3195 21.5372 21.0807 21.6353 20.8599C21.7333 20.6391 21.8762 20.441 22.0549 20.2784C22.411 19.9438 22.8817 19.758 23.3703 19.7593H32.6918C32.8497 19.7593 33.0011 19.822 33.1128 19.9337C33.2244 20.0453 33.2872 20.1967 33.2872 20.3546C33.2872 20.5125 33.2244 20.664 33.1128 20.7756C33.0011 20.8873 32.8497 20.95 32.6918 20.95H23.3678C23.1763 20.9442 22.99 21.0134 22.8487 21.1428C22.7907 21.1962 22.7444 21.2611 22.7128 21.3333C22.6811 21.4055 22.6648 21.4835 22.6647 21.5623V46.8745H40.3778V33.2904Z" fill="#262F6A"/>
</g>
</g>
</g>
<defs>
<clipPath id="clip0_130_888">
<rect width="63" height="63" fill="white" transform="translate(0.000976562)"/>
</clipPath>
</defs>
</svg>
